<svg width="580" height="390" viewBox="0 0 580 390" fill="none" xmlns="http://www.w3.org/2000/svg">
<path d="M170.018 95.3702L83.2676 153.913L168.733 282.751L255.484 224.208L170.018 95.3702Z" fill="#F5F5F5"/>
<path d="M210.671 218.134L209.687 224.281L166.551 218.01L167.535 211.862L210.671 218.134Z" fill="#E0E0E0"/>
<path d="M188.948 196.205L195.134 197.104L188.272 239.94L182.085 239.041L188.948 196.205Z" fill="#E0E0E0"/>
<path d="M149.216 141.761C149.278 141.854 140.582 147.83 129.796 155.107C119.011 162.383 110.212 168.211 110.154 168.115C110.095 168.02 118.786 162.048 129.575 154.769C140.365 147.49 149.154 141.668 149.216 141.761Z" fill="#E0E0E0"/>
<path d="M181.127 133.681C181.189 133.775 166.728 143.64 148.833 155.712C130.937 167.784 116.374 177.5 116.312 177.407C116.25 177.313 130.707 167.451 148.609 155.374C166.511 143.296 181.065 133.588 181.127 133.681Z" fill="#E0E0E0"/>
<path d="M187.523 143.327C187.585 143.42 173.124 153.285 155.229 165.358C137.334 177.431 122.77 187.146 122.708 187.053C122.646 186.96 137.104 177.097 155.005 165.02C172.906 152.943 187.461 143.234 187.523 143.327Z" fill="#E0E0E0"/>
<path d="M193.919 152.973C193.981 153.066 179.521 162.931 161.626 175.004C143.73 187.076 129.167 196.792 129.105 196.699C129.043 196.605 143.5 186.743 161.401 174.666C179.303 162.589 193.857 152.88 193.919 152.973Z" fill="#E0E0E0"/>
<path d="M200.317 162.619C200.378 162.712 185.918 172.577 168.022 184.649C150.126 196.721 135.563 206.438 135.501 206.344C135.439 206.251 149.897 196.389 167.799 184.312C185.701 172.235 200.255 162.526 200.317 162.619Z" fill="#E0E0E0"/>
<path d="M460.19 181.743L387.316 230.905L459.088 339.134L531.961 289.972L460.19 181.743Z" fill="#F5F5F5"/>
<path d="M494.314 284.84L493.487 290.004L457.261 284.74L458.087 279.578L494.314 284.84Z" fill="#E0E0E0"/>
<path d="M476.07 266.424L481.269 267.179L475.505 303.154L470.307 302.399L476.07 266.424Z" fill="#E0E0E0"/>
<path d="M442.702 220.7C442.764 220.793 435.469 225.823 426.41 231.932C417.351 238.04 409.955 242.923 409.893 242.83C409.831 242.736 417.124 237.707 426.186 231.598C435.248 225.488 442.64 220.607 442.702 220.7Z" fill="#E0E0E0"/>
<path d="M469.501 213.914C469.563 214.007 457.427 222.304 442.398 232.443C427.369 242.581 415.129 250.729 415.068 250.636C415.006 250.543 427.139 242.248 442.174 232.105C457.208 221.962 469.439 213.821 469.501 213.914Z" fill="#E0E0E0"/>
<path d="M474.873 222.015C474.935 222.108 462.798 230.405 447.769 240.544C432.74 250.684 420.502 258.831 420.44 258.737C420.378 258.643 432.511 250.349 447.546 240.207C462.58 230.064 474.811 221.922 474.873 222.015Z" fill="#E0E0E0"/>
<path d="M480.245 230.115C480.307 230.209 468.171 238.506 453.142 248.644C438.113 258.782 425.874 266.93 425.812 266.837C425.749 266.745 437.883 258.449 452.918 248.307C467.952 238.165 480.183 230.021 480.245 230.115Z" fill="#E0E0E0"/>
<path d="M485.617 238.217C485.679 238.31 473.542 246.606 458.513 256.745C443.484 266.885 431.246 275.032 431.184 274.938C431.122 274.845 443.256 266.55 458.29 256.408C473.324 246.265 485.555 238.124 485.617 238.217Z" fill="#E0E0E0"/>
<path d="M344.919 100.134L265.389 57.207L202.72 175.322L282.25 218.25L344.919 100.134Z" fill="#F5F5F5"/>
<path d="M268.673 181.247L263.629 182.988L250.824 147.285L255.869 145.542L268.673 181.247Z" fill="#E0E0E0"/>
<path d="M276.407 155.633L278.245 160.758L243.089 172.9L241.252 167.777L276.407 155.633Z" fill="#E0E0E0"/>
<path d="M301.386 102.955C301.324 103.072 293.259 98.8448 283.376 93.5167C273.493 88.1885 265.527 83.7667 265.589 83.6489C265.652 83.5311 273.715 87.7587 283.602 93.0916C293.489 98.4244 301.445 102.838 301.386 102.955Z" fill="#E0E0E0"/>
<path d="M320.469 124.197C320.408 124.314 307.061 117.237 290.662 108.391C274.263 99.5455 261.015 92.2766 261.077 92.1596C261.14 92.0426 274.483 99.118 290.887 107.966C307.291 116.815 320.53 124.08 320.469 124.197Z" fill="#E0E0E0"/>
<path d="M315.781 133.036C315.718 133.153 302.371 126.076 285.973 117.23C269.574 108.384 256.326 101.115 256.388 100.998C256.45 100.88 269.794 107.956 286.198 116.805C302.602 125.654 315.843 132.918 315.781 133.036Z" fill="#E0E0E0"/>
<path d="M311.093 141.874C311.032 141.992 297.685 134.914 281.286 126.069C264.887 117.224 251.639 109.954 251.701 109.836C251.764 109.719 265.107 116.795 281.512 125.644C297.917 134.493 311.156 141.757 311.093 141.874Z" fill="#E0E0E0"/>
<path d="M306.407 150.713C306.344 150.831 292.997 143.753 276.599 134.908C260.202 126.063 246.952 118.793 247.014 118.675C247.076 118.557 260.42 125.634 276.824 134.483C293.228 143.332 306.472 150.596 306.407 150.713Z" fill="#E0E0E0"/>
<path opacity="0.2" d="M306.824 0H304.826V34.3067H306.824V0Z" fill="black"/>
<path d="M259.246 75.8077H352.403C352.403 75.8077 343.802 34.2852 305.118 34.2852C270.711 34.2852 259.246 75.8077 259.246 75.8077Z" fill="#BC3B6C"/>
<path d="M306.823 0H304.825V34.3067H306.823V0Z" fill="#BC3B6C"/>
<path d="M513.235 343.066C513.235 343.178 413.281 343.27 290.01 343.27C166.697 343.27 66.7646 343.178 66.7646 343.066C66.7646 342.954 166.697 342.863 290.01 342.863C413.281 342.863 513.235 342.955 513.235 343.066Z" fill="#263238"/>
<path d="M91.4741 294.216C92.7824 294.31 94.0584 294.669 95.2258 295.272C96.3932 295.875 97.4278 296.71 98.2679 297.726C99.9374 299.772 101.12 302.176 101.726 304.754C103.035 309.687 102.23 315.507 100.835 320.416C95.5419 318.507 92.2769 312.813 90.8006 309.819C88.4674 305.087 87.0994 295.107 91.4741 294.219" fill="#F6A500"/>
<path d="M108.454 326.394C107.66 325.15 107.206 323.717 107.138 322.24C107.07 320.762 107.391 319.293 108.067 317.981C108.766 316.682 109.714 315.536 110.855 314.611C111.997 313.685 113.31 312.998 114.718 312.588C116.01 312.188 117.509 312.021 118.632 312.777C119.137 313.164 119.53 313.68 119.77 314.271C120.011 314.862 120.091 315.508 120.001 316.141C119.804 317.406 119.279 318.597 118.478 319.592C115.905 323.108 112.774 326.033 108.456 326.394" fill="#F6A500"/>
<path d="M109.036 342.875C108.927 342.542 108.847 342.199 108.799 341.851C108.658 341.12 108.474 340.175 108.258 339.043C107.562 335.949 107.366 332.762 107.678 329.605C108.046 326.429 109.244 323.409 111.151 320.855C111.739 320.095 112.414 319.408 113.161 318.808C113.364 318.645 113.574 318.492 113.792 318.351C113.939 318.253 114.024 318.207 114.024 318.217C113.043 319.056 112.149 319.994 111.355 321.014C109.545 323.567 108.405 326.539 108.04 329.655C107.547 333.295 108.158 336.625 108.511 339.001C108.701 340.194 108.854 341.162 108.941 341.833C109.005 342.177 109.037 342.526 109.036 342.875Z" fill="#263238"/>
<path d="M93.1816 301.724C93.2666 301.851 93.3379 301.986 93.3943 302.128C93.5358 302.436 93.7168 302.83 93.9403 303.317C94.4081 304.352 95.0655 305.858 95.8628 307.727C97.4574 311.462 99.5895 316.654 101.817 322.44C104.045 328.226 105.939 333.516 107.258 337.357C107.918 339.278 108.439 340.838 108.785 341.92C108.945 342.433 109.075 342.847 109.176 343.168C109.23 343.311 109.268 343.46 109.289 343.612C109.214 343.479 109.153 343.338 109.107 343.192L108.65 341.967L107.013 337.443C105.632 333.621 103.699 328.357 101.476 322.572C99.2523 316.788 97.1589 311.586 95.6261 307.83L93.8111 303.376C93.6139 302.877 93.4538 302.474 93.3293 302.16C93.2645 302.021 93.215 301.874 93.1816 301.724Z" fill="#263238"/>
<path d="M102.752 331.968C101.162 329.294 98.9627 327.042 96.3373 325.397C93.7118 323.751 90.7354 322.761 87.6547 322.507C86.0903 322.393 84.2072 322.658 83.5097 324.075C82.8121 325.492 83.7455 327.175 84.8112 328.341C87.0795 330.733 89.9992 332.394 93.2022 333.115C96.4052 333.836 99.7482 333.585 102.81 332.393" fill="#F6A500"/>
<path d="M90.0381 326.736C90.3651 326.716 90.6933 326.728 91.0179 326.772C91.4013 326.793 91.783 326.838 92.1609 326.906C92.6017 326.989 93.1152 327.038 93.6612 327.19C94.2641 327.325 94.8594 327.492 95.4445 327.69C96.1209 327.907 96.7849 328.162 97.4335 328.452C98.9188 329.126 100.324 329.967 101.623 330.958C102.905 331.972 104.067 333.132 105.086 334.414C105.525 334.976 105.932 335.564 106.305 336.173C106.639 336.697 106.942 337.241 107.212 337.802C107.445 338.258 107.653 338.727 107.836 339.206C107.988 339.561 108.117 339.925 108.222 340.298C108.338 340.607 108.423 340.927 108.477 341.252C108.4 341.28 108.023 339.916 106.98 337.919C106.698 337.375 106.386 336.846 106.047 336.336C105.668 335.744 105.259 335.173 104.82 334.625C103.804 333.377 102.656 332.245 101.396 331.249C100.12 330.275 98.7439 329.441 97.292 328.761C96.657 328.468 96.0073 328.207 95.3455 327.981C94.7719 327.773 94.1884 327.594 93.597 327.445C91.4286 326.892 90.0296 326.816 90.0381 326.736Z" fill="#263238"/>
<path d="M441.079 82.2697C438.805 82.7977 437.698 85.4365 437.482 87.7804C437.266 90.1243 437.56 92.5984 436.587 94.7364C435.489 97.1427 432.866 98.9164 432.779 101.564C432.725 103.178 433.676 104.696 433.63 106.31C433.552 108.962 430.874 110.965 430.733 113.614C430.632 115.521 431.893 117.352 431.589 119.237C431.353 120.704 430.221 121.86 429.742 123.266C428.787 126.068 430.695 129.153 433.183 130.731C434.573 131.613 436.138 132.179 437.768 132.387C439.398 132.596 441.054 132.442 442.619 131.938C444.184 131.433 445.621 130.59 446.829 129.467C448.037 128.344 448.988 126.968 449.613 125.436C450.989 122.067 450.688 118.274 450.387 114.644C449.455 103.329 448.763 91.9978 448.31 80.6504" fill="#263238"/>
<path d="M434.477 122.197C434.94 121.897 435.302 121.462 435.516 120.949C435.741 120.342 435.832 119.692 435.78 119.045C435.696 118.183 435.507 117.335 435.217 116.52C434.844 115.498 434.706 114.405 434.813 113.322C435.008 112.107 435.869 111.11 436.656 110.129C437.074 109.646 437.425 109.107 437.7 108.529C437.971 107.942 438.015 107.274 437.821 106.657C437.421 105.382 436.184 104.445 435.616 102.974C435.355 102.244 435.312 101.453 435.491 100.698C435.659 99.9903 435.91 99.3049 436.237 98.6562C436.887 97.496 437.402 96.2647 437.774 94.9863C438.315 92.5122 438.063 90.1503 438.433 88.2105C438.638 86.653 439.322 85.1995 440.388 84.0538C440.692 83.761 441.036 83.5136 441.41 83.3191C441.54 83.2502 441.677 83.1978 441.819 83.1631C441.337 83.4363 440.893 83.7728 440.499 84.1638C439.51 85.3162 438.888 86.7424 438.714 88.2565C438.578 89.3017 438.506 90.3543 438.499 91.4085C438.494 92.6378 438.372 93.8638 438.135 95.0698C437.769 96.3781 437.251 97.6386 436.594 98.8255C436.012 100.051 435.478 101.488 435.993 102.831C436.484 104.157 437.73 105.101 438.197 106.536C438.416 107.244 438.364 108.008 438.053 108.68C437.761 109.289 437.388 109.855 436.944 110.362C436.136 111.348 435.326 112.286 435.142 113.377C435.032 114.411 435.151 115.456 435.49 116.438C435.771 117.277 435.944 118.149 436.005 119.032C436.041 119.709 435.923 120.386 435.66 121.009C435.489 121.404 435.215 121.744 434.867 121.994C434.75 122.084 434.617 122.153 434.477 122.197Z" fill="#455A64"/>
<path d="M428.388 140.685L421.407 160.982L392.297 162.556L387.439 173.451L417.831 176.553C419.268 177.152 420.81 177.45 422.364 177.43C423.918 177.41 425.452 177.072 426.873 176.436C428.294 175.801 429.572 174.881 430.63 173.732C431.688 172.584 432.504 171.231 433.028 169.755L441.139 146.921L428.388 140.685Z" fill="#B78876"/>
<path d="M488.602 332.045C488.602 332.045 467.268 263.704 466.816 261.485C466.407 259.48 474.559 210.299 475.585 197.57L446.76 198.655V198.867L434.507 199.552L445.48 339.322H458.741L457.426 292.95C465.605 315.102 477.327 337.672 477.327 337.672L488.602 332.045Z" fill="#B78876"/>
<path d="M457.967 309.568C457.979 309.144 457.806 294.031 457.806 294.031C457.641 294.935 452.721 280.909 452.84 280.057C452.903 279.615 457.967 309.568 457.967 309.568Z" fill="#A36957"/>
<path d="M452.281 273.417C452.215 273.694 452.186 273.979 452.196 274.264C452.163 275.036 452.169 275.809 452.214 276.581C452.233 277.071 452.283 277.606 452.346 278.179C452.41 278.752 452.496 279.364 452.628 279.999C452.897 281.38 453.259 282.74 453.711 284.071C454.673 286.899 455.736 289.375 456.491 291.169C456.849 291.987 457.157 292.691 457.414 293.282C457.511 293.55 457.643 293.803 457.808 294.035C457.767 293.753 457.689 293.478 457.576 293.217C457.398 292.702 457.127 291.962 456.782 291.051C456.101 289.227 455.081 286.735 454.13 283.933C453.684 282.619 453.315 281.279 453.026 279.921C452.886 279.297 452.794 278.696 452.709 278.134C452.624 277.573 452.564 277.042 452.525 276.561C452.434 275.596 452.393 274.809 452.37 274.266C452.379 273.98 452.349 273.695 452.281 273.417Z" fill="#A36957"/>
<path d="M445.23 340.01L445.224 338.753L458.812 338.156L458.849 343.339L458.011 343.396C454.282 343.616 439.032 344.25 436.536 343.496C433.752 342.654 445.23 340.01 445.23 340.01Z" fill="#455A64"/>
<path d="M459.038 343.025C458.962 343.042 458.884 343.051 458.806 343.052L458.139 343.095L455.682 343.211C453.607 343.294 450.739 343.368 447.57 343.385C444.402 343.402 441.532 343.347 439.457 343.282L436.999 343.189L436.332 343.151C436.254 343.151 436.176 343.143 436.1 343.127C436.177 343.117 436.254 343.114 436.332 343.118L437.001 343.124L439.458 343.166C441.534 343.2 444.401 343.232 447.569 343.219C450.736 343.206 453.601 343.147 455.678 343.094L458.136 343.031L458.804 343.018C458.882 343.013 458.96 343.016 459.038 343.025Z" fill="#263238"/>
<path d="M440.828 343.467C440.659 342.624 440.197 341.869 439.524 341.34C439.93 341.519 440.272 341.819 440.505 342.198C440.738 342.578 440.851 343.021 440.828 343.467Z" fill="#263238"/>
<path d="M444.81 341.411C444.771 341.435 444.578 341.202 444.381 340.889C444.185 340.576 444.054 340.303 444.091 340.279C444.129 340.255 444.323 340.487 444.519 340.8C444.715 341.113 444.848 341.387 444.81 341.411Z" fill="#263238"/>
<path d="M445.904 340.823C445.874 340.857 445.661 340.715 445.427 340.505C445.194 340.295 445.028 340.096 445.058 340.063C445.088 340.029 445.303 340.171 445.536 340.381C445.77 340.591 445.932 340.789 445.904 340.823Z" fill="#263238"/>
<path d="M446.589 339.534C446.364 339.62 446.123 339.652 445.884 339.628C445.646 339.658 445.404 339.633 445.177 339.556C445.402 339.472 445.642 339.439 445.881 339.462C446.119 339.433 446.361 339.457 446.589 339.534Z" fill="#263238"/>
<path d="M446.824 338.626C446.581 338.758 446.313 338.838 446.037 338.86C445.762 338.882 445.485 338.846 445.225 338.754C445.489 338.71 445.757 338.69 446.025 338.695C446.289 338.647 446.556 338.624 446.824 338.626Z" fill="#263238"/>
<path d="M444.347 340.224C444.059 340.275 443.765 340.275 443.478 340.224C443.163 340.186 442.853 340.118 442.55 340.022C442.366 339.969 442.188 339.896 442.02 339.803C441.916 339.744 441.839 339.647 441.804 339.533C441.79 339.468 441.794 339.4 441.818 339.338C441.841 339.275 441.881 339.221 441.935 339.182C442.265 339.016 442.643 338.972 443.002 339.056C443.362 339.141 443.681 339.349 443.906 339.644C444.041 339.816 444.138 340.015 444.191 340.228C444.218 340.303 444.226 340.383 444.215 340.462C444.126 340.192 443.991 339.939 443.816 339.715C443.62 339.485 443.362 339.317 443.073 339.232C442.904 339.175 442.725 339.153 442.548 339.166C442.37 339.18 442.196 339.228 442.037 339.31C441.9 339.413 441.955 339.577 442.108 339.668C442.264 339.755 442.428 339.825 442.597 339.877C442.889 339.978 443.189 340.057 443.493 340.111C444.016 340.197 444.347 340.197 444.347 340.224Z" fill="#263238"/>
<path d="M444.121 340.267C444.015 340.084 443.978 339.868 444.019 339.66C444.044 339.43 444.124 339.21 444.251 339.019C444.324 338.888 444.428 338.778 444.554 338.699C444.68 338.621 444.825 338.576 444.973 338.569C445.061 338.588 445.138 338.641 445.189 338.716C445.239 338.791 445.258 338.883 445.242 338.973C445.222 339.112 445.172 339.245 445.096 339.363C444.983 339.556 444.845 339.735 444.688 339.894C444.554 340.052 444.384 340.174 444.192 340.25C444.176 340.229 444.364 340.094 444.602 339.814C444.741 339.652 444.862 339.475 444.964 339.288C445.083 339.102 445.163 338.769 444.945 338.73C444.728 338.71 444.507 338.929 444.374 339.104C444.253 339.274 444.17 339.469 444.131 339.675C444.11 339.872 444.107 340.07 444.121 340.267Z" fill="#263238"/>
<path d="M458.749 339.296C458.749 339.326 458.362 339.26 457.751 339.335C456.954 339.425 456.2 339.742 455.575 340.248C454.95 340.754 454.48 341.429 454.22 342.194C454.016 342.779 453.997 343.172 453.967 343.168C453.951 343.078 453.951 342.985 453.967 342.894C453.99 342.644 454.038 342.397 454.112 342.157C454.351 341.355 454.826 340.644 455.474 340.119C456.122 339.594 456.912 339.28 457.741 339.218C457.989 339.198 458.238 339.203 458.484 339.235C458.575 339.239 458.665 339.26 458.749 339.296Z" fill="#263238"/>
<path d="M452.245 341.939C450.94 342.185 449.602 342.193 448.294 341.961C448.299 341.913 449.181 341.971 450.27 341.961C451.359 341.951 452.236 341.892 452.245 341.939Z" fill="#263238"/>
<path d="M454.891 341.911C454.923 341.943 454.819 342.099 454.729 342.301C454.64 342.502 454.592 342.687 454.545 342.684C454.499 342.682 454.475 342.469 454.58 342.234C454.685 341.998 454.862 341.874 454.891 341.911Z" fill="#263238"/>
<path d="M455.885 340.653C455.917 340.685 455.831 340.828 455.691 340.97C455.551 341.113 455.412 341.204 455.381 341.172C455.35 341.14 455.436 340.998 455.575 340.855C455.715 340.711 455.852 340.621 455.885 340.653Z" fill="#263238"/>
<path d="M457.312 340.075C457.302 340.122 457.122 340.12 456.925 340.192C456.728 340.264 456.584 340.371 456.548 340.34C456.513 340.31 456.626 340.12 456.872 340.035C457.118 339.95 457.325 340.033 457.312 340.075Z" fill="#263238"/>
<path d="M458.327 339.802C458.344 339.845 458.266 339.915 458.154 339.958C458.042 340.001 457.938 340.004 457.922 339.962C457.906 339.92 457.983 339.848 458.095 339.805C458.207 339.762 458.31 339.759 458.327 339.802Z" fill="#263238"/>
<path d="M477.063 338.801L476.548 337.657L488.701 331.495L490.84 336.208L490.098 336.606C486.785 338.348 473.131 345.227 470.548 345.57C467.667 345.955 477.063 338.801 477.063 338.801Z" fill="#455A64"/>
<path d="M490.885 335.847C490.822 335.893 490.754 335.933 490.684 335.967L490.093 336.279L487.899 337.399C486.043 338.335 483.454 339.583 480.569 340.909C477.685 342.235 475.045 343.369 473.126 344.168L470.846 345.098L470.222 345.339C470.151 345.372 470.076 345.399 470 345.417C470.066 345.376 470.136 345.341 470.209 345.313L470.821 345.042L473.081 344.064C474.988 343.238 477.617 342.083 480.505 340.761C483.393 339.44 485.98 338.204 487.852 337.298L490.068 336.225L490.673 335.938C490.741 335.901 490.812 335.871 490.885 335.847Z" fill="#263238"/>
<path d="M474.451 343.773C473.955 343.073 473.226 342.575 472.397 342.369C472.841 342.365 473.274 342.498 473.641 342.748C474.008 342.999 474.291 343.357 474.451 343.773Z" fill="#263238"/>
<path d="M477.249 340.253C477.225 340.291 476.955 340.157 476.647 339.954C476.339 339.751 476.106 339.554 476.134 339.516C476.163 339.478 476.429 339.612 476.737 339.816C477.044 340.019 477.274 340.214 477.249 340.253Z" fill="#263238"/>
<path d="M478.006 339.266C477.993 339.31 477.74 339.266 477.441 339.172C477.143 339.078 476.911 338.964 476.925 338.92C476.939 338.877 477.192 338.92 477.491 339.014C477.789 339.108 478.02 339.222 478.006 339.266Z" fill="#263238"/>
<path d="M478.111 337.806C478.129 337.847 477.859 338.015 477.505 338.182C477.3 338.308 477.07 338.385 476.831 338.409C476.812 338.367 477.082 338.199 477.436 338.032C477.641 337.906 477.872 337.829 478.111 337.806Z" fill="#263238"/>
<path d="M477.955 336.882C477.986 336.913 477.736 337.199 477.337 337.42C477.105 337.578 476.831 337.662 476.552 337.659C476.775 337.509 477.011 337.38 477.258 337.275C477.478 337.123 477.712 336.991 477.955 336.882Z" fill="#263238"/>
<path d="M476.344 339.361C476.102 339.525 475.834 339.646 475.551 339.717C475.248 339.813 474.937 339.879 474.623 339.915C474.433 339.944 474.241 339.951 474.05 339.936C473.931 339.925 473.821 339.869 473.741 339.78C473.702 339.726 473.679 339.663 473.674 339.596C473.67 339.53 473.685 339.464 473.718 339.406C473.953 339.119 474.279 338.923 474.642 338.852C475.004 338.781 475.379 338.839 475.704 339.016C475.897 339.117 476.066 339.259 476.202 339.43C476.295 339.552 476.327 339.632 476.319 339.636C476.128 339.427 475.902 339.253 475.653 339.121C475.38 338.992 475.076 338.945 474.777 338.986C474.6 339.004 474.428 339.057 474.271 339.142C474.115 339.227 473.976 339.343 473.864 339.483C473.78 339.634 473.896 339.76 474.074 339.78C474.251 339.795 474.429 339.791 474.605 339.769C474.912 339.741 475.217 339.689 475.516 339.613C476.031 339.473 476.333 339.336 476.344 339.361Z" fill="#263238"/>
<path d="M476.157 339.494C475.985 339.371 475.864 339.188 475.817 338.981C475.748 338.761 475.732 338.527 475.771 338.299C475.784 338.15 475.835 338.007 475.918 337.883C476.001 337.759 476.114 337.659 476.247 337.591C476.441 337.531 476.894 337.925 476.925 338.072C476.974 338.219 476.693 338.143 476.682 338.267C476.658 338.49 476.606 338.71 476.528 338.92C476.47 339.12 476.364 339.302 476.218 339.45C476.196 339.437 476.312 339.235 476.416 338.883C476.477 338.677 476.516 338.466 476.532 338.252C476.566 338.034 476.504 337.697 476.289 337.751C476.082 337.823 475.969 338.114 475.92 338.328C475.878 338.534 475.881 338.747 475.929 338.952C475.989 339.139 476.065 339.321 476.157 339.494Z" fill="#263238"/>
<path d="M489.107 332.563C489.116 332.593 488.739 332.691 488.212 333.012C487.522 333.424 486.963 334.024 486.598 334.744C486.234 335.464 486.079 336.274 486.153 337.079C486.204 337.697 486.347 338.063 486.318 338.073C486.266 337.996 486.228 337.912 486.205 337.822C486.124 337.585 486.068 337.34 486.038 337.091C485.93 336.26 486.075 335.416 486.452 334.67C486.83 333.923 487.424 333.31 488.154 332.911C488.372 332.789 488.601 332.691 488.839 332.618C488.925 332.585 489.015 332.566 489.107 332.563Z" fill="#263238"/>
<path d="M484.244 337.662C483.153 338.425 481.935 338.984 480.649 339.313C480.633 339.268 481.462 338.957 482.452 338.5C483.442 338.042 484.22 337.622 484.244 337.662Z" fill="#263238"/>
<path d="M486.648 336.543C486.691 336.56 486.66 336.745 486.661 336.968C486.663 337.191 486.692 337.378 486.648 337.394C486.604 337.411 486.493 337.227 486.493 336.969C486.493 336.711 486.608 336.525 486.648 336.543Z" fill="#263238"/>
<path d="M487.045 334.986C487.088 335.001 487.067 335.167 486.998 335.355C486.929 335.543 486.839 335.684 486.796 335.667C486.754 335.651 486.775 335.486 486.844 335.298C486.913 335.109 487.003 334.97 487.045 334.986Z" fill="#263238"/>
<path d="M488.111 333.869C488.121 333.915 487.957 333.988 487.802 334.135C487.647 334.282 487.564 334.438 487.519 334.425C487.474 334.412 487.5 334.191 487.691 334.015C487.882 333.839 488.107 333.825 488.111 333.869Z" fill="#263238"/>
<path d="M488.927 333.2C488.959 333.232 488.917 333.328 488.832 333.415C488.748 333.502 488.654 333.546 488.622 333.515C488.59 333.484 488.631 333.386 488.716 333.299C488.8 333.212 488.894 333.168 488.927 333.2Z" fill="#263238"/>
<path d="M473.716 174.435L471.453 146.589L483.075 146.798C483.075 146.798 483.617 142.693 481.901 133.687C480.851 128.166 477.205 124.779 473.116 122.767V122.689L472.761 122.596C469.392 121.071 465.794 120.124 462.116 119.794L447.85 119.96C447.85 119.96 436.952 118.589 430.92 126.425C428.596 129.443 421.408 150.102 421.408 150.102L438.531 158.42L436.902 146.964C436.902 146.964 437.225 155.269 438.277 157.901C438.862 159.367 440.558 163.92 440.558 163.92L440.336 177.659L473.716 174.435Z" fill="#F6A500"/>
<path d="M465.846 142.55L463.729 151.649H483.704L482.39 136.395L465.846 142.55Z" fill="#F6A500"/>
<path d="M483.704 151.649C482.832 151.482 481.947 151.393 481.06 151.385C479.423 151.288 477.158 151.207 474.654 151.218C472.15 151.229 469.884 151.339 468.248 151.471C467.361 151.497 466.478 151.607 465.61 151.799C466.494 151.86 467.382 151.856 468.265 151.784C469.901 151.733 472.16 151.674 474.656 151.662C477.152 151.649 479.412 151.683 481.049 151.699C481.934 151.752 482.822 151.736 483.704 151.649Z" fill="#263238"/>
<path d="M464.984 136.319C464.888 137.087 464.866 137.862 464.918 138.634C464.933 140.062 464.984 142.033 465.068 144.209C465.151 146.385 465.252 148.355 465.347 149.78C465.354 150.553 465.436 151.324 465.591 152.082C465.688 151.314 465.71 150.539 465.658 149.767C465.643 148.34 465.592 146.368 465.508 144.192C465.423 142.016 465.324 140.046 465.229 138.622C465.222 137.848 465.139 137.077 464.984 136.319Z" fill="#263238"/>
<g opacity="0.3">
<path opacity="0.3" d="M446.807 144.2C446.807 144.2 451.247 177.403 463.728 176.524C463.728 176.524 469.347 176.457 471.152 172.69V171.208L446.807 144.2Z" fill="black"/>
</g>
<g opacity="0.3">
<path opacity="0.3" d="M464.984 138.276L462.595 154.553L464.141 157.41L466.688 151.825L465.611 151.799L464.984 138.276Z" fill="black"/>
</g>
<path d="M440.557 163.925C440.413 163.68 440.299 163.418 440.22 163.145C440.026 162.637 439.768 161.892 439.47 160.966C438.693 158.549 438.055 156.089 437.559 153.598C437.065 151.104 436.748 148.578 436.612 146.039C436.566 145.065 436.552 144.276 436.566 143.731C436.55 143.447 436.57 143.163 436.624 142.884C436.688 142.884 436.731 144.086 436.897 146.019C437.115 148.537 437.468 151.04 437.954 153.519C438.528 156.421 439.217 159.013 439.742 160.882C439.987 161.749 440.196 162.487 440.368 163.096C440.465 163.363 440.528 163.642 440.557 163.925Z" fill="#263238"/>
<path d="M445.604 173.466C445.497 173.499 445.189 172.782 444.914 171.866C444.684 171.325 444.58 170.738 444.609 170.15C444.715 170.118 445.025 170.834 445.299 171.75C445.529 172.291 445.633 172.878 445.604 173.466Z" fill="#263238"/>
<path d="M447.329 173.34C446.745 171.775 446.72 170.054 447.258 168.473C447.324 169.283 447.329 170.096 447.275 170.907C447.353 171.716 447.371 172.529 447.329 173.34Z" fill="#263238"/>
<path d="M438.879 158.808C438.828 158.908 434.843 157.001 429.979 154.55C425.115 152.098 421.209 150.026 421.258 149.927C421.308 149.829 425.292 151.733 430.159 154.186C435.025 156.639 438.928 158.705 438.879 158.808Z" fill="#263238"/>
<path d="M445.904 122.656C445.993 118.71 446.015 114.554 446.015 114.554C446.015 114.554 440.997 113.579 440.123 106.92C439.288 100.569 441.621 85.667 441.621 85.667C448.951 82.8723 456.568 85.4057 461.59 91.3961L460.344 123.434C460.198 127.153 456.913 129.986 452.965 129.803C448.976 129.615 445.816 126.416 445.904 122.656Z" fill="#B78876"/>
<path d="M446.916 103.739C446.441 103.575 445.947 103.472 445.446 103.433C445.214 103.402 444.997 103.35 444.962 103.189C444.949 102.947 445.009 102.707 445.135 102.501C445.368 101.94 445.611 101.353 445.866 100.739C446.54 99.2483 447.095 97.7049 447.524 96.124C446.732 97.5568 446.056 99.0514 445.501 100.593C445.256 101.212 445.022 101.803 444.799 102.367C444.646 102.645 444.595 102.968 444.655 103.281C444.687 103.364 444.737 103.439 444.801 103.5C444.866 103.561 444.943 103.606 445.027 103.632C445.155 103.671 445.287 103.693 445.42 103.698C445.915 103.775 446.417 103.789 446.916 103.739Z" fill="#263238"/>
<path d="M446.012 114.555C449.107 114.683 452.176 113.942 454.879 112.415C454.879 112.415 452.625 116.915 446.063 116.123L446.012 114.555Z" fill="#A36957"/>
<path d="M446.931 105.931C446.833 105.909 446.732 105.92 446.641 105.963C446.55 106.005 446.476 106.076 446.429 106.165C446.371 106.27 446.351 106.392 446.373 106.51C446.394 106.629 446.456 106.736 446.547 106.814C446.638 106.892 446.753 106.935 446.872 106.937C446.991 106.939 447.108 106.899 447.201 106.824C447.294 106.749 447.359 106.644 447.384 106.526C447.409 106.409 447.393 106.286 447.339 106.179C447.284 106.072 447.195 105.987 447.085 105.939C446.976 105.891 446.853 105.883 446.738 105.917" fill="#A36957"/>
<path d="M447.141 106.021C447.182 105.984 446.996 105.76 446.6 105.847C446.481 105.877 446.373 105.938 446.286 106.024C446.199 106.11 446.136 106.218 446.103 106.337C446.062 106.487 446.066 106.646 446.115 106.793C446.163 106.941 446.254 107.071 446.376 107.166C446.504 107.256 446.655 107.305 446.81 107.306C446.966 107.307 447.118 107.26 447.246 107.172C447.349 107.101 447.431 107.003 447.48 106.887C447.53 106.772 447.545 106.645 447.526 106.521C447.448 106.11 447.144 106.045 447.139 106.101C447.105 106.154 447.244 106.296 447.216 106.539C447.213 106.599 447.194 106.656 447.162 106.707C447.129 106.757 447.085 106.798 447.032 106.825C446.971 106.857 446.903 106.873 446.834 106.87C446.765 106.867 446.698 106.845 446.64 106.808C446.587 106.762 446.546 106.704 446.522 106.638C446.497 106.572 446.49 106.5 446.501 106.431C446.511 106.369 446.535 106.311 446.571 106.261C446.607 106.211 446.655 106.17 446.71 106.142C446.923 106.02 447.114 106.079 447.141 106.021Z" fill="#263238"/>
<path d="M458.548 99.2214C457.766 101.05 455.857 102.458 456.122 104.433C456.293 105.706 457.103 106.894 456.945 108.17C456.747 109.772 455.097 110.883 454.863 112.48C454.577 114.439 456.467 115.962 457.221 117.79C458.32 120.452 456.912 123.447 456.881 126.33C456.927 128.544 457.766 130.666 459.244 132.304C460.722 133.941 462.738 134.983 464.919 135.236C466.685 135.383 468.674 134.846 469.588 133.316C470.344 132.053 470.193 130.45 470.646 129.049C471.321 126.961 473.293 125.433 473.709 123.277C474.467 119.348 469.759 116.097 470.07 112.106C470.202 110.402 471.245 108.914 471.689 107.264C471.97 106.177 471.992 105.038 471.752 103.94C471.512 102.843 471.017 101.819 470.308 100.952C469.148 99.5584 467.46 98.6419 466.471 97.1193C465.349 95.3924 465.311 93.2029 464.887 91.1827C464.368 88.7084 463.236 86.4071 461.597 84.4939C459.957 82.5808 457.863 81.1183 455.51 80.2432C453.158 79.3681 450.624 79.109 448.145 79.4902C445.666 79.8713 443.324 80.8802 441.337 82.4225C441.337 82.4225 440.213 87.5635 445.444 88.4231C450.676 89.2826 453.1 88.2905 453.691 90.4058C453.556 91.279 453.628 92.1721 453.901 93.0119C454.174 93.8517 454.64 94.6143 455.262 95.2372C457.421 97.5982 459.454 97.1045 458.548 99.2214Z" fill="#263238"/>
<path d="M466.897 134.877C466.737 134.878 466.576 134.862 466.419 134.827C465.965 134.75 465.519 134.629 465.089 134.464C463.492 133.848 462.092 132.802 461.041 131.442C460.301 130.516 459.719 129.472 459.319 128.352C458.868 127.066 458.631 125.713 458.617 124.348C458.598 122.844 458.786 121.346 459.174 119.894C459.375 119.127 459.622 118.374 459.914 117.637C460.237 116.906 460.521 116.158 460.765 115.397C460.972 114.648 460.969 113.856 460.757 113.109C460.53 112.371 460.236 111.656 459.878 110.973C459.521 110.294 459.22 109.587 458.977 108.859C458.738 108.137 458.683 107.367 458.814 106.618C459.124 105.148 460.007 104.061 460.53 102.945C461.029 101.912 461.268 100.771 461.226 99.6226C461.154 97.9419 460.55 96.3287 459.501 95.0206C459.092 94.5616 458.653 94.1306 458.187 93.7305C458.729 94.039 459.214 94.4407 459.62 94.9176C460.748 96.2269 461.413 97.8773 461.51 99.6093C461.572 100.809 461.337 102.006 460.825 103.091C460.292 104.248 459.438 105.343 459.174 106.688C458.91 108.033 459.538 109.438 460.227 110.796C460.599 111.501 460.904 112.239 461.139 113.002C461.369 113.817 461.373 114.681 461.149 115.498C460.902 116.275 460.613 117.038 460.284 117.783C459.996 118.504 459.752 119.242 459.552 119.992C459.168 121.408 458.977 122.87 458.985 124.338C458.961 126.837 459.762 129.272 461.261 131.26C462.268 132.603 463.607 133.656 465.143 134.314C466.243 134.764 466.907 134.831 466.897 134.877Z" fill="#455A64"/>
<path d="M466.127 95.5175C465.75 95.6164 465.364 95.6744 464.974 95.6907C463.914 95.8054 462.842 95.7771 461.789 95.6064C460.99 95.4876 460.223 95.2088 459.532 94.7863C458.841 94.3638 458.241 93.8062 457.768 93.1463C457.324 92.3141 456.971 91.4362 456.713 90.5279C456.385 89.6189 455.765 88.847 454.951 88.3353C453.259 87.2534 451.269 87.1208 449.527 86.9071C447.93 86.8288 446.378 86.3416 445.019 85.4914C444.109 84.88 443.452 83.9531 443.174 82.8862C443.109 82.5982 443.088 82.3015 443.115 82.0071C443.118 81.9039 443.139 81.802 443.177 81.7061C443.189 82.0908 443.239 82.4734 443.327 82.848C443.648 83.8445 444.304 84.6963 445.183 85.2558C446.519 86.0399 448.026 86.4793 449.57 86.535C451.296 86.7316 453.36 86.84 455.169 87.9944C456.054 88.5525 456.727 89.3942 457.08 90.3843C457.326 91.2698 457.661 92.1276 458.08 92.9443C458.974 94.2059 460.326 95.061 461.841 95.3241C462.87 95.5153 463.918 95.5854 464.963 95.5331C465.35 95.4989 465.739 95.4936 466.127 95.5175Z" fill="#455A64"/>
<path d="M464.208 89.1646C463.918 89.269 463.61 89.3149 463.302 89.2995C461.857 89.3091 460.465 88.7493 459.423 87.7395C458.952 87.2589 458.549 86.7157 458.224 86.1249C457.528 84.9385 456.855 83.4729 455.409 82.8707C454.016 82.3974 452.532 82.2655 451.078 82.4862C449.85 82.6503 448.605 82.6398 447.38 82.455C446.54 82.3299 445.75 81.9727 445.098 81.4231C444.925 81.2721 444.772 81.0991 444.643 80.9083C444.556 80.7772 444.517 80.7055 444.528 80.6969C444.561 80.6719 444.745 80.948 445.198 81.3006C445.855 81.7781 446.623 82.078 447.427 82.1719C448.631 82.3111 449.847 82.2914 451.046 82.1134C452.563 81.8629 454.119 81.9952 455.574 82.4987C456.317 82.835 456.956 83.3698 457.42 84.0454C457.828 84.655 458.204 85.2861 458.546 85.9361C458.847 86.5047 459.222 87.0306 459.66 87.5C460.049 87.8981 460.498 88.2323 460.99 88.4906C461.709 88.8714 462.5 89.0939 463.31 89.1435C463.881 89.1747 464.203 89.1295 464.208 89.1646Z" fill="#455A64"/>
<path d="M469.205 133.193C469.165 133.175 469.412 132.673 469.697 131.711C470.086 130.354 470.26 128.943 470.213 127.531C470.152 125.439 469.586 123.395 468.564 121.575C467.998 120.553 467.139 119.642 466.439 118.521C466.065 117.947 465.801 117.309 465.659 116.638C465.54 115.932 465.599 115.208 465.831 114.532C466.264 113.186 467.041 112.051 467.208 110.813C467.415 109.571 466.793 108.439 466.203 107.432C465.898 106.931 465.621 106.413 465.375 105.881C465.148 105.364 465 104.814 464.937 104.252C464.864 103.261 464.894 102.264 465.024 101.278C465.273 99.8884 465.146 98.4566 464.658 97.1332C464.44 96.6676 464.129 96.2521 463.745 95.9125C463.749 95.9063 463.781 95.9211 463.839 95.957C463.926 96.0081 464.009 96.0676 464.085 96.1348C464.384 96.3918 464.627 96.708 464.799 97.0638C465.36 98.4004 465.536 99.8693 465.308 101.302C465.199 102.268 465.186 103.242 465.269 104.211C465.456 105.303 465.884 106.338 466.522 107.24C466.852 107.766 467.133 108.321 467.364 108.899C467.606 109.524 467.686 110.202 467.596 110.867C467.408 112.232 466.61 113.386 466.211 114.654C466 115.267 465.944 115.924 466.05 116.564C466.182 117.186 466.426 117.778 466.77 118.31C467.434 119.388 468.298 120.316 468.882 121.387C469.92 123.266 470.475 125.378 470.496 127.529C470.521 128.968 470.301 130.4 469.846 131.764C469.72 132.133 469.571 132.492 469.4 132.842C469.351 132.967 469.285 133.085 469.205 133.193Z" fill="#455A64"/>
<path d="M437.707 278.528C437.707 278.528 432.499 228.731 432.2 210.33C431.902 191.929 440.402 173.775 440.402 173.775L473.719 172.354C473.719 172.354 480.305 191.024 480.423 198.866C480.655 214.105 476.408 229.155 476.897 241.245L478.011 278.529" fill="#263238"/>
<path d="M479.122 217.308C478.953 217.46 478.772 217.598 478.581 217.723L478.278 217.939C478.174 218.028 478.072 218.141 477.955 218.251C477.677 218.501 477.428 218.782 477.213 219.089C476.137 220.415 475.352 222.793 474.606 225.754C474.222 227.392 473.656 228.982 472.92 230.492C472.705 230.905 472.458 231.299 472.18 231.671C472.036 231.859 471.904 232.061 471.745 232.238L471.231 232.756C470.5 233.444 469.651 233.994 468.726 234.377C466.861 235.202 464.755 235.593 462.832 236.566C460.869 237.634 459.352 239.378 458.556 241.48C457.618 243.594 457.049 245.813 456.267 247.884C455.622 249.95 454.416 251.793 452.787 253.204C451.186 254.326 449.284 254.928 447.335 254.928C445.541 255.033 443.879 254.981 442.39 255.209C441.046 255.348 439.761 255.838 438.66 256.628C437.856 257.259 437.253 258.115 436.927 259.089C436.718 259.704 436.673 260.364 436.798 261.002C436.884 261.44 437.006 261.65 436.979 261.661C436.856 261.464 436.768 261.247 436.719 261.02C436.557 260.368 436.577 259.684 436.777 259.042C437.088 258.022 437.695 257.12 438.519 256.45C439.641 255.612 440.961 255.086 442.347 254.925C443.865 254.675 445.544 254.711 447.312 254.592C449.191 254.581 451.022 253.993 452.562 252.907C454.126 251.53 455.281 249.742 455.896 247.742C456.665 245.695 457.23 243.473 458.188 241.313C459.021 239.127 460.605 237.315 462.652 236.209C464.653 235.207 466.758 234.828 468.577 234.032C469.466 233.669 470.283 233.147 470.989 232.492L471.481 232.003C471.636 231.832 471.762 231.639 471.902 231.462C472.173 231.105 472.414 230.726 472.624 230.329C473.361 228.846 473.933 227.285 474.33 225.675C475.11 222.729 475.95 220.316 477.088 218.989C477.317 218.682 477.58 218.404 477.873 218.159C477.996 218.049 478.105 217.94 478.214 217.854L478.533 217.651C478.72 217.521 478.917 217.406 479.122 217.308Z" fill="#FAFAFA"/>
<path d="M479.328 194.266C479.361 194.486 479.376 194.709 479.372 194.933C479.368 195.575 479.29 196.214 479.14 196.838C478.473 199.12 477.166 201.158 475.376 202.708C474.182 203.805 472.874 204.769 471.474 205.582C469.981 206.476 468.334 207.327 466.646 208.288C464.868 209.252 463.21 210.427 461.709 211.79C460.172 213.331 458.907 215.124 457.968 217.094C457.017 219.087 455.934 221.012 454.725 222.857C454.112 223.723 453.403 224.515 452.61 225.216C451.838 225.873 450.994 226.44 450.095 226.905C448.432 227.727 446.699 228.396 444.918 228.907C443.265 229.423 441.723 229.88 440.375 230.449C439.154 230.941 437.992 231.569 436.909 232.321C436.096 232.891 435.364 233.572 434.734 234.344C434.212 235.016 433.774 235.749 433.429 236.528C433.483 236.312 433.555 236.1 433.644 235.896C433.896 235.306 434.221 234.751 434.61 234.243C435.229 233.439 435.958 232.729 436.776 232.133C437.861 231.352 439.03 230.697 440.262 230.183C441.621 229.589 443.171 229.114 444.815 228.585C446.572 228.066 448.28 227.393 449.919 226.573C450.791 226.117 451.608 225.563 452.356 224.921C453.123 224.237 453.809 223.466 454.401 222.624C455.595 220.791 456.667 218.879 457.609 216.902C458.569 214.895 459.863 213.068 461.434 211.501C462.962 210.121 464.65 208.933 466.461 207.962C468.162 207.005 469.812 206.168 471.301 205.292C472.689 204.502 473.989 203.565 475.18 202.496C476.953 200.996 478.272 199.023 478.984 196.802C479.188 195.971 479.303 195.121 479.328 194.266Z" fill="#FAFAFA"/>
<path d="M432.364 212.968C432.334 212.922 432.311 212.871 432.297 212.817C431.996 212.073 431.97 211.244 432.225 210.482C432.655 208.894 434.365 206.918 437.122 205.928C438.493 205.453 440.05 205.166 441.671 204.738C443.021 204.517 444.298 203.972 445.395 203.149C446.492 202.326 447.376 201.248 447.973 200.008C448.417 199.099 448.803 198.163 449.129 197.205C449.733 195.129 450.555 193.125 451.58 191.224C452.757 189.356 454.54 187.957 456.625 187.268C458.521 186.648 460.455 186.153 462.414 185.786C464.163 185.448 465.857 184.867 467.447 184.057C468.794 183.29 469.957 182.234 470.853 180.962C472.174 179.116 472.927 176.919 473.019 174.644C473.021 173.81 472.966 172.976 472.854 172.148C473.087 172.959 473.195 173.801 473.175 174.644C473.143 176.968 472.415 179.227 471.087 181.126C470.179 182.447 468.992 183.547 467.611 184.348C465.999 185.188 464.278 185.793 462.498 186.148C460.558 186.522 458.642 187.018 456.764 187.635C454.763 188.298 453.052 189.641 451.924 191.435C450.914 193.312 450.101 195.291 449.5 197.339C449.166 198.313 448.77 199.264 448.315 200.187C447.69 201.471 446.767 202.584 445.625 203.433C444.484 204.282 443.156 204.842 441.755 205.064C440.111 205.483 438.564 205.752 437.212 206.202C434.531 207.124 432.828 209.018 432.375 210.53C432.182 211.112 432.131 211.732 432.227 212.337C432.313 212.747 432.382 212.961 432.364 212.968Z" fill="#FAFAFA"/>
<path d="M476.463 255.074C476.499 255.235 476.517 255.399 476.517 255.563C476.533 256.037 476.485 256.511 476.375 256.972C475.886 258.662 474.858 260.142 473.451 261.184C472.518 261.935 471.486 262.553 470.385 263.021C469.125 263.533 467.84 263.981 466.535 264.363C465.107 264.778 463.709 265.292 462.352 265.904C460.914 266.576 459.62 267.528 458.546 268.704C457.418 269.896 456.444 271.2 455.364 272.347C454.329 273.467 453.126 274.416 451.8 275.161C449.543 276.403 447.017 277.065 444.446 277.09C442.722 277.111 441.008 276.824 439.384 276.241C438.942 276.089 438.513 275.903 438.099 275.686C437.949 275.622 437.807 275.543 437.674 275.448C437.832 275.485 437.986 275.54 438.133 275.612C438.558 275.796 438.992 275.956 439.434 276.091C441.052 276.607 442.744 276.847 444.44 276.802C446.956 276.739 449.418 276.063 451.619 274.834C452.906 274.099 454.072 273.169 455.077 272.074C456.135 270.942 457.104 269.64 458.255 268.423C459.363 267.212 460.698 266.233 462.183 265.544C463.559 264.929 464.977 264.415 466.426 264.006C467.793 263.586 469.092 263.197 470.255 262.71C471.334 262.266 472.348 261.676 473.271 260.959C474.653 259.966 475.686 258.556 476.219 256.931C476.363 256.322 476.445 255.7 476.463 255.074Z" fill="#FAFAFA"/>
<path d="M472.665 151.681L466.223 151.837C465.971 153.148 465.477 154.398 464.766 155.524C459.379 146.092 455.202 133.455 454.165 128.38C454.32 127.872 454.494 127.311 454.718 126.684C454.879 125.736 454.85 124.764 454.633 123.828C454.453 122.697 454.139 121.176 454.044 120.474C453.758 118.328 453.415 117.991 452.673 118.233C451.663 118.563 453.087 124.261 452.26 124.384C451.815 124.45 451.271 122.498 451.113 120.897C450.956 119.296 450.238 114.37 449.713 114.042C448.943 113.56 448.273 114.322 448.468 115.914C448.664 117.528 448.913 122.341 448.073 122.406C447.247 122.47 446.552 114.304 446.552 114.304C446.552 114.304 446.683 112.527 445.712 112.569C443.959 112.647 445.329 121.256 445.48 122.071C445.584 122.639 444.674 122.743 444.594 122.127C444.512 121.493 444.089 113.96 442.305 114.021C440.936 114.067 443.365 121.119 442.597 122.75C441.828 124.381 441.294 117.201 439.987 117.3C439.5 117.336 439.14 117.432 440.035 121.497C440.903 124.728 441.947 127.909 443.16 131.025C445.232 142.295 454.325 178.352 468.581 171.752C476.557 168.058 479.794 151.689 479.794 151.689L472.665 151.681Z" fill="#B78876"/>
<path d="M445.174 122.616C445.237 122.621 445.3 122.612 445.36 122.59C445.453 122.562 445.533 122.501 445.587 122.419C445.64 122.336 445.662 122.238 445.65 122.14C445.632 121.656 445.557 120.951 445.445 120.039C445.266 118.938 445.148 117.829 445.09 116.715C445.08 116.062 445.096 115.36 445.133 114.616C445.142 114.24 445.18 113.864 445.246 113.493C445.306 113.14 445.541 112.736 445.811 112.784L445.841 112.79H445.855C446.13 112.777 446.345 112.993 446.433 113.324C446.526 113.663 446.56 114.016 446.534 114.367V114.392C446.698 116.576 446.974 118.75 447.361 120.905C447.424 121.196 447.488 121.49 447.578 121.785C447.623 121.937 447.677 122.086 447.738 122.232C447.775 122.314 447.819 122.393 447.87 122.466C447.904 122.524 447.951 122.572 448.007 122.607C448.063 122.643 448.127 122.665 448.193 122.671C448.305 122.657 448.41 122.612 448.497 122.539C448.583 122.466 448.647 122.37 448.68 122.261C448.745 122.107 448.793 121.946 448.824 121.781C448.887 121.467 448.928 121.149 448.949 120.83C449.02 119.53 449.003 118.227 448.897 116.93C448.801 116.283 448.775 115.628 448.819 114.976C448.847 114.692 448.983 114.431 449.2 114.248C449.249 114.218 449.305 114.199 449.362 114.192C449.419 114.184 449.477 114.189 449.533 114.205C449.597 114.223 449.659 114.249 449.717 114.283C449.755 114.313 449.785 114.353 449.802 114.399C450.048 115.031 450.228 115.688 450.338 116.359C450.475 117.05 450.594 117.753 450.703 118.465C450.812 119.177 450.912 119.896 450.996 120.622C451.06 121.369 451.179 122.11 451.353 122.84C451.44 123.216 451.557 123.584 451.702 123.942C451.778 124.142 451.885 124.328 452.02 124.493C452.074 124.563 452.145 124.617 452.228 124.647C452.31 124.677 452.399 124.683 452.484 124.663C452.562 124.636 452.631 124.59 452.686 124.529C452.742 124.467 452.781 124.393 452.801 124.313C452.89 123.915 452.916 123.506 452.878 123.1C452.862 122.71 452.83 122.33 452.801 121.948C452.746 121.291 452.683 120.641 452.661 119.998C452.647 119.685 452.655 119.373 452.685 119.062C452.697 118.922 452.728 118.785 452.778 118.654C452.796 118.611 452.823 118.572 452.856 118.538C452.868 118.526 452.876 118.531 452.886 118.519L452.986 118.49C453.499 118.276 453.67 118.996 453.806 119.576C453.925 120.181 454 120.806 454.121 121.422C454.325 122.65 454.585 123.871 454.721 125.045C454.811 125.603 454.788 126.174 454.653 126.723C454.47 127.288 454.289 127.845 454.111 128.397L454.095 128.446L454.107 128.499C455.015 132.33 456.171 136.098 457.567 139.777C458.792 143.105 460.015 145.982 461.096 148.334C462.177 150.687 463.139 152.502 463.808 153.74L464.612 155.134C464.698 155.298 464.798 155.455 464.91 155.602C464.846 155.428 464.766 155.26 464.673 155.099C464.489 154.747 464.241 154.273 463.927 153.674C463.299 152.418 462.371 150.59 461.329 148.226C460.287 145.862 459.092 142.983 457.896 139.654C456.534 135.983 455.404 132.229 454.513 128.414L454.508 128.516L455.049 126.865C455.209 126.257 455.242 125.621 455.145 124.999C455.006 123.779 454.753 122.594 454.551 121.359C454.432 120.749 454.359 120.123 454.234 119.487C454.174 119.152 454.068 118.827 453.919 118.522C453.828 118.333 453.678 118.181 453.492 118.088C453.297 118.013 453.082 118.004 452.882 118.063L452.752 118.101C452.689 118.125 452.629 118.159 452.576 118.201C452.491 118.277 452.424 118.372 452.381 118.478C452.313 118.648 452.269 118.828 452.252 119.011C452.219 119.345 452.21 119.681 452.225 120.017C452.248 120.678 452.31 121.333 452.366 121.988C452.398 122.369 452.429 122.747 452.443 123.121C452.474 123.472 452.455 123.825 452.386 124.17C452.367 124.252 452.328 124.236 452.372 124.276C452.368 124.25 452.378 124.316 452.376 124.305V124.297C452.374 124.288 452.374 124.279 452.376 124.27C452.38 124.263 452.397 124.236 452.387 124.234C452.368 124.224 452.352 124.209 452.341 124.191C452.242 124.062 452.162 123.92 452.104 123.768C451.969 123.432 451.859 123.086 451.776 122.733C451.607 122.022 451.49 121.299 451.427 120.57C451.341 119.836 451.239 119.113 451.128 118.397C451.017 117.681 450.896 116.973 450.754 116.274C450.636 115.559 450.439 114.861 450.167 114.19C450.111 114.079 450.028 113.985 449.925 113.917C449.834 113.863 449.737 113.822 449.636 113.794C449.527 113.764 449.412 113.757 449.3 113.773C449.188 113.788 449.08 113.827 448.983 113.885C448.823 114.006 448.691 114.158 448.592 114.332C448.494 114.507 448.432 114.7 448.411 114.899C448.356 115.253 448.351 115.613 448.398 115.968C448.437 116.301 448.468 116.628 448.495 116.957C448.604 118.235 448.627 119.518 448.564 120.799C448.546 121.101 448.509 121.402 448.452 121.699C448.427 121.838 448.388 121.973 448.335 122.104C448.315 122.157 448.286 122.206 448.25 122.249C448.222 122.314 448.198 122.235 448.2 122.34C448.24 122.262 448.2 122.305 448.171 122.238C448.136 122.186 448.105 122.132 448.079 122.075C448.024 121.945 447.975 121.812 447.933 121.676C447.847 121.399 447.779 121.112 447.719 120.828C447.32 118.69 447.029 116.533 446.845 114.366V114.391C446.871 114 446.828 113.607 446.719 113.231C446.665 113.034 446.56 112.855 446.417 112.712C446.261 112.568 446.055 112.492 445.844 112.501L445.886 112.506C445.756 112.487 445.623 112.508 445.505 112.565C445.386 112.622 445.287 112.714 445.22 112.828C445.102 113.012 445.021 113.218 444.982 113.434C444.916 113.82 444.882 114.212 444.879 114.604C444.851 115.354 444.845 116.06 444.866 116.72C444.942 117.841 445.084 118.956 445.293 120.059C445.428 120.965 445.525 121.669 445.572 122.143C445.586 122.227 445.572 122.314 445.531 122.388C445.49 122.462 445.424 122.52 445.346 122.551C445.236 122.603 445.172 122.61 445.174 122.616Z" fill="#A36957"/>
<path d="M394.811 162.42C393.302 162.387 391.794 162.561 390.331 162.938C386.338 163.998 379.444 168.212 379.158 173.418H384.165C384.165 173.418 381.361 179.439 382.185 178.878C384.323 177.431 388.579 173.069 388.579 173.069L394.811 162.42Z" fill="#B78876"/>
<path d="M463.116 71.7939C463.006 71.8033 462.551 67.6279 462.101 62.4674C461.651 57.307 461.376 53.1152 461.488 53.1074C461.599 53.0996 462.052 57.2726 462.502 62.4347C462.952 67.5967 463.226 71.7838 463.116 71.7939Z" fill="#263238"/>
<path d="M485.084 53.36C485.175 53.4248 481.792 58.3778 477.529 64.4212C473.265 70.4646 469.735 75.3123 469.641 75.2468C469.546 75.1813 472.933 70.2306 477.198 64.1856C481.463 58.1406 484.994 53.2953 485.084 53.36Z" fill="#263238"/>
<path d="M494.212 75.8068C494.234 75.916 490.286 76.8278 485.396 77.8418C480.505 78.8558 476.519 79.589 476.496 79.4798C476.474 79.3706 480.422 78.4588 485.312 77.4448C490.203 76.4308 494.189 75.6968 494.212 75.8068Z" fill="#263238"/>
<path d="M231.194 182.944L203.85 324.747L200.271 343.311L382.826 342.403C391.019 342.363 398.279 335.025 400.916 324.124L433.287 190.247C435.288 181.972 430.897 173.365 424.678 173.371L239.911 173.567C235.828 173.571 232.262 177.41 231.194 182.944Z" fill="#BC3B6C"/>
<g opacity="0.5">
<path opacity="0.5" d="M231.194 182.944L203.85 324.747L200.271 343.311L382.826 342.403C391.019 342.363 398.279 335.025 400.916 324.124L433.287 190.247C435.288 181.972 430.897 173.365 424.678 173.371L239.911 173.567C235.828 173.571 232.262 177.41 231.194 182.944Z" fill="black"/>
</g>
<path d="M365.313 315.14L345.984 158.042C345.192 151.605 340.106 146.804 334.106 146.823L291.722 146.963C290.147 146.978 288.592 147.318 287.152 147.962C285.713 148.606 284.419 149.54 283.35 150.707L263.224 172.285L145.348 172.909C138.144 172.946 132.61 179.821 133.565 187.546L151.511 332.745C152.306 339.172 157.379 343.968 163.374 343.956L368.807 343.546C391.688 344.024 393.872 337.209 393.872 337.209C367.65 343.068 365.315 315.158 365.313 315.14Z" fill="#BC3B6C"/>
<g opacity="0.5">
<path opacity="0.5" d="M276.731 283.7L269.802 291.205L216.442 242.786L223.371 235.281L276.731 283.7Z" fill="white"/>
<path opacity="0.5" d="M266.898 233.617L274.554 240.565L226.271 292.869L218.615 285.921L266.898 233.617Z" fill="white"/>
</g>
<path d="M394.648 80.9533C394.397 80.8453 394.183 80.6682 394.028 80.4424C393.873 80.2166 393.785 79.9513 393.774 79.6772L393.464 72.4356C393.454 72.2108 393.496 71.9866 393.586 71.7808C393.677 71.5749 393.813 71.3931 393.985 71.2494C394.157 71.1058 394.36 71.0043 394.577 70.953C394.794 70.9017 395.02 70.9019 395.238 70.9536C395.836 71.0841 396.454 71.0897 397.055 70.97C397.655 70.8504 398.225 70.608 398.729 70.2579C399.194 69.9609 399.594 69.5712 399.905 69.1126C400.215 68.654 400.429 68.1362 400.534 67.5911C400.605 67.0369 400.565 66.4741 400.416 65.936C400.267 65.3978 400.012 64.8954 399.666 64.4586C399.305 63.9618 398.85 63.5424 398.327 63.2247C397.804 62.9071 397.223 62.6976 396.619 62.6084C395.398 62.5406 394.19 62.8921 393.193 63.6057C392.196 64.3193 391.468 65.3527 391.128 66.5373C391.083 66.7265 391 66.9046 390.886 67.0611C390.771 67.2176 390.626 67.3494 390.46 67.4485C390.294 67.5476 390.11 67.6122 389.919 67.6383C389.728 67.6644 389.533 67.6515 389.347 67.6005C389.161 67.5495 388.987 67.4613 388.835 67.3412C388.683 67.2211 388.556 67.0715 388.463 66.9012C388.369 66.731 388.311 66.5435 388.29 66.35C388.27 66.1564 388.288 65.9607 388.344 65.7744C388.87 63.9208 390.013 62.3066 391.581 61.2037C393.149 60.1008 395.046 59.5766 396.952 59.7193C397.945 59.8513 398.901 60.184 399.763 60.6974C400.626 61.2108 401.377 61.8945 401.971 62.7075C402.551 63.4585 402.976 64.3198 403.219 65.2399C403.462 66.1601 403.519 67.1202 403.385 68.063C403.217 69.0023 402.859 69.8968 402.334 70.6912C401.809 71.4857 401.128 72.1632 400.334 72.6821C399.173 73.4687 397.818 73.9148 396.42 73.9707L396.66 79.5524C396.67 79.7985 396.619 80.0434 396.511 80.2641C396.402 80.4848 396.24 80.6742 396.039 80.8144C395.838 80.9547 395.605 81.0413 395.362 81.0661C395.119 81.0909 394.874 81.0532 394.649 80.9564L394.648 80.9533Z" fill="#179EDA"/>
<path d="M396.763 83.9106C396.779 84.1454 396.725 84.3798 396.609 84.584C396.493 84.7882 396.32 84.9531 396.111 85.0579C395.902 85.1627 395.666 85.2026 395.435 85.1726C395.203 85.1425 394.986 85.044 394.81 84.8893C394.634 84.7346 394.508 84.5308 394.446 84.3036C394.385 84.0764 394.392 83.836 394.467 83.6129C394.541 83.3897 394.679 83.1938 394.864 83.0499C395.049 82.9061 395.272 82.8206 395.504 82.8045C395.817 82.7831 396.125 82.8875 396.36 83.0949C396.596 83.3023 396.741 83.5957 396.763 83.9106Z" fill="#179EDA"/>
<path d="M369.797 70.7418C369.833 70.5856 369.857 70.4268 369.867 70.2668C369.904 69.9275 369.954 69.4657 370.022 68.8721C370.095 68.1171 370.22 67.3681 370.396 66.6304C370.498 66.1936 370.55 65.7077 370.705 65.2163C370.86 64.7249 371.014 64.1968 371.185 63.6415C372.073 60.9764 373.371 58.4688 375.031 56.2104C377.784 52.5344 381.451 49.657 385.661 47.8693C389.87 46.0816 394.473 45.447 399.004 46.0298C399.598 46.0868 400.181 46.2467 400.778 46.3512C401.38 46.4502 401.975 46.5949 402.556 46.7841C405.01 47.4702 407.343 48.537 409.472 49.9462C414.182 53.029 417.77 57.5737 419.694 62.8942C420.721 65.7453 421.235 68.7584 421.211 71.7917C421.245 74.9198 420.696 78.0264 419.594 80.9504L419.245 81.8412L419.198 81.959L419.246 82.069C421.186 86.575 423.088 90.9937 424.931 95.2767L425.256 94.9039L413.675 90.4157L413.531 90.3604L413.419 90.4696C410.351 93.4704 406.593 95.6584 402.482 96.8383C398.971 97.8157 395.293 98.0298 391.694 97.4662C388.094 96.9027 384.654 95.5744 381.602 93.5693C379.101 91.9139 376.897 89.8434 375.081 87.4455C372.452 83.9469 370.749 79.8308 370.132 75.485C370.04 74.7237 369.958 74.0477 369.888 73.457C369.873 72.8735 369.861 72.3767 369.85 71.9664C369.837 71.5834 369.827 71.2816 369.82 71.053C369.822 70.9484 369.813 70.8439 369.795 70.741C369.779 70.8442 369.773 70.9487 369.776 71.053C369.776 71.2816 369.769 71.5834 369.765 71.9687C369.765 72.3811 369.765 72.8806 369.765 73.4671C369.824 74.063 369.892 74.745 369.969 75.5131C370.226 77.389 370.669 79.2343 371.29 81.0214C372.179 83.3789 373.371 85.608 374.836 87.6514C376.657 90.0975 378.878 92.2127 381.403 93.9062C384.493 95.9617 387.982 97.3294 391.637 97.9179C395.292 98.5065 399.03 98.3025 402.6 97.3195C406.792 96.1305 410.625 93.9111 413.757 90.8603L413.501 90.9142L425.077 95.421L425.66 95.648L425.402 95.0482L419.724 81.8373V82.0651L420.082 81.1548C421.208 78.1666 421.768 74.9916 421.733 71.7948C421.755 68.6943 421.228 65.6147 420.175 62.7016C418.207 57.2765 414.539 52.6465 409.727 49.5133C407.556 48.085 405.177 47.0061 402.677 46.3153C402.085 46.1258 401.479 45.9808 400.866 45.8816C400.259 45.7771 399.664 45.6172 399.062 45.5611C393.5 44.8022 387.845 45.9171 382.976 48.7325C379.769 50.5526 376.982 53.038 374.797 56.0248C373.138 58.3213 371.852 60.8705 370.99 63.5759C370.827 64.1391 370.673 64.6711 370.526 65.1718C370.371 65.6687 370.327 66.1601 370.233 66.6016C370.069 67.3464 369.96 68.1025 369.907 68.8636C369.864 69.4603 369.83 69.9267 369.806 70.2676C369.792 70.4252 369.789 70.5837 369.797 70.7418Z" fill="#263238"/>
</svg>
