<svg width="64" height="64" viewBox="0 0 64 64" fill="none" xmlns="http://www.w3.org/2000/svg">
<rect width="64" height="64" fill="#E5E5E5"/>
<g clip-path="url(#clip0_70_415)">
<rect width="1440" height="2767" transform="translate(-298 -1755)" fill="white"/>
<rect x="-298" y="-1160" width="1440" height="1594" fill="#FAFAFA"/>
<g opacity="0.06">
<rect width="64" height="64" rx="16" fill="#00A099"/>
</g>
<path fill-rule="evenodd" clip-rule="evenodd" d="M48.9333 27.7833V42.8342C48.9333 45.927 46.426 48.4342 43.3333 48.4342H20.9333C17.8405 48.4342 15.3333 45.927 15.3333 42.8342V27.7833C15.3333 27.0021 15.7164 26.2706 16.3587 25.8235L20.4484 22.9774C20.8111 22.725 21.3097 22.8144 21.562 23.1771C21.8144 23.5397 21.725 24.0383 21.3624 24.2907L17.2727 27.1368C17.0631 27.2827 16.9374 27.5186 16.9334 27.7709C17.1835 27.6825 17.4528 27.6344 17.7333 27.6344C18.1613 27.6344 18.5815 27.7488 18.9503 27.9659L32.1333 35.7226L45.3162 27.9659C45.9515 27.592 46.6885 27.544 47.3332 27.7715C47.3294 27.519 47.2036 27.2828 46.9938 27.1368L43.0212 24.3722C42.6586 24.1198 42.5692 23.6212 42.8215 23.2586C43.0739 22.8959 43.5725 22.8065 43.9352 23.0589L47.9078 25.8235C48.5501 26.2706 48.9333 27.0021 48.9333 27.7833Z" fill="#66B22E"/>
<path fill-rule="evenodd" clip-rule="evenodd" d="M20.3333 27.334V19.334C20.3333 17.1248 22.1241 15.334 24.3333 15.334H40.3333C42.5424 15.334 44.3333 17.1248 44.3333 19.334V27.334L32.3333 34.534L20.3333 27.334ZM27.5333 23.334H37.1333C37.5751 23.334 37.9333 22.9758 37.9333 22.534C37.9333 22.0922 37.5751 21.734 37.1333 21.734H27.5333C27.0914 21.734 26.7333 22.0922 26.7333 22.534C26.7333 22.9758 27.0914 23.334 27.5333 23.334ZM37.9333 27.334C37.9333 27.7758 37.5751 28.134 37.1333 28.134H27.5333C27.0914 28.134 26.7333 27.7758 26.7333 27.334C26.7333 26.8922 27.0914 26.534 27.5333 26.534H37.1333C37.5751 26.534 37.9333 26.8922 37.9333 27.334Z" fill="#66B22E"/>
</g>
<defs>
<clipPath id="clip0_70_415">
<rect width="1440" height="2767" fill="white" transform="translate(-298 -1755)"/>
</clipPath>
</defs>
</svg>
