<svg width="64" height="64" viewBox="0 0 64 64" fill="none" xmlns="http://www.w3.org/2000/svg">
<g opacity="0.06">
<rect width="64" height="64" rx="16" fill="#66B22E"/>
</g>
<path d="M27.0879 30.5357L32.6113 36.3642C33.2102 36.9961 34.2947 37.0863 35.503 36.4909C38.5779 35.2161 39.601 34.9053 40.185 35.5216L46.5343 42.2215C47.2848 43.0135 47.0845 44.3327 46.2452 45.2183C41.8873 49.817 34.804 49.817 30.446 45.2183L18.5853 32.7025C14.2492 28.1269 14.2492 20.7244 18.5853 16.1487C19.4423 15.2444 20.7584 15.0219 21.5372 15.8437L27.8864 22.5437C28.4367 23.1244 28.1417 24.206 26.9402 27.4288C26.3816 28.6868 26.4711 29.8848 27.0879 30.5357Z" fill="#66B22E"/>
</svg>
