<svg width="64" height="64" viewBox="0 0 64 64" fill="none" xmlns="http://www.w3.org/2000/svg">
<g opacity="0.06">
<rect width="64" height="64" rx="16" fill="#66B22E"/>
</g>
<path fill-rule="evenodd" clip-rule="evenodd" d="M22.5337 26.1898C29.6214 27.19 35.1652 24.6066 39.0258 18.4743C39.0451 18.4436 39.0628 18.412 39.0789 18.3799C40.5646 20.0517 41.467 22.2534 41.467 24.6659V28.1326C41.467 31.6362 39.5459 34.786 36.5677 36.4268C36.1796 36.1573 35.7083 35.9992 35.2 35.9992C33.8745 35.9992 32.8 37.0738 32.8 38.3992C32.8 39.7247 33.8745 40.7992 35.2 40.7992C35.8713 40.7992 36.4782 40.5236 36.9137 40.0794C36.2647 42.1182 34.3102 43.5992 32 43.5992C29.1618 43.5992 26.8606 41.3641 26.8571 38.6056L27.616 36.525C24.5337 34.9139 22.5337 31.7074 22.5337 28.1326V26.1898V26.1898ZM22.5525 24.065C22.8624 19.1167 26.9739 15.1992 32.0004 15.1992C34.1189 15.1992 36.0749 15.8951 37.6522 17.0708C37.6038 17.1206 37.5593 17.1771 37.5196 17.24C34.0452 22.7591 29.1344 25.0251 22.6455 24.0734C22.6143 24.0688 22.5833 24.066 22.5525 24.065H22.5525ZM24.8811 39.6528C25.4037 43.019 28.3919 45.5993 32 45.5993C35.6089 45.5993 38.5976 43.0179 39.1194 39.6508L42.9556 40.4243C44.4795 40.7216 45.6937 41.8739 46.0703 43.3801L47.1766 47.8052C47.3028 48.3102 46.9209 48.7993 46.4004 48.7993H17.6004C17.08 48.7993 16.6981 48.3102 16.8243 47.8052L17.9292 43.3859C18.3067 41.8759 19.5257 40.722 21.0464 40.4295L24.8811 39.6528Z" fill="#66B22E"/>
<path opacity="0.3" fill-rule="evenodd" clip-rule="evenodd" d="M35.1999 39.1996C35.6417 39.1996 35.9999 38.8414 35.9999 38.3996C35.9999 37.9578 35.6417 37.5996 35.1999 37.5996C34.7581 37.5996 34.3999 37.9578 34.3999 38.3996C34.3999 38.8414 34.7581 39.1996 35.1999 39.1996Z" fill="#66B22E"/>
<path opacity="0.3" fill-rule="evenodd" clip-rule="evenodd" d="M42.9708 23.1992H43.2001C44.5256 23.1992 45.6001 24.2737 45.6001 25.5992V28.7992C45.6001 30.1247 44.5256 31.1992 43.2001 31.1992H42.6348C42.9177 30.2174 43.0671 29.187 43.0671 28.1326V24.6659C43.0671 24.1687 43.0343 23.6791 42.9708 23.1992Z" fill="#66B22E"/>
<path opacity="0.3" fill-rule="evenodd" clip-rule="evenodd" d="M21.366 31.1992H20.7999C19.4744 31.1992 18.3999 30.1247 18.3999 28.7992V25.5992C18.3999 24.2737 19.4744 23.1992 20.7999 23.1992H21.03C20.9664 23.6791 20.9336 24.1687 20.9336 24.6659V28.1326C20.9336 29.187 21.0831 30.2174 21.366 31.1992V31.1992Z" fill="#66B22E"/>
</svg>
