<svg width="16" height="17" viewBox="0 0 16 17" fill="none" xmlns="http://www.w3.org/2000/svg">
<path d="M8 4.40625C5.75 4.40625 3.95703 6.23438 3.95703 8.44922C3.95703 10.6992 5.75 12.4922 8 12.4922C10.2148 12.4922 12.043 10.6992 12.043 8.44922C12.043 6.23438 10.2148 4.40625 8 4.40625ZM8 11.0859C6.55859 11.0859 5.36328 9.92578 5.36328 8.44922C5.36328 7.00781 6.52344 5.84766 8 5.84766C9.44141 5.84766 10.6016 7.00781 10.6016 8.44922C10.6016 9.92578 9.44141 11.0859 8 11.0859ZM13.1328 4.26562C13.1328 3.73828 12.7109 3.31641 12.1836 3.31641C11.6562 3.31641 11.2344 3.73828 11.2344 4.26562C11.2344 4.79297 11.6562 5.21484 12.1836 5.21484C12.7109 5.21484 13.1328 4.79297 13.1328 4.26562ZM15.8047 5.21484C15.7344 3.94922 15.4531 2.82422 14.5391 1.91016C13.625 0.996094 12.5 0.714844 11.2344 0.644531C9.93359 0.574219 6.03125 0.574219 4.73047 0.644531C3.46484 0.714844 2.375 0.996094 1.42578 1.91016C0.511719 2.82422 0.230469 3.94922 0.160156 5.21484C0.0898438 6.51562 0.0898438 10.418 0.160156 11.7188C0.230469 12.9844 0.511719 14.0742 1.42578 15.0234C2.375 15.9375 3.46484 16.2188 4.73047 16.2891C6.03125 16.3594 9.93359 16.3594 11.2344 16.2891C12.5 16.2188 13.625 15.9375 14.5391 15.0234C15.4531 14.0742 15.7344 12.9844 15.8047 11.7188C15.875 10.418 15.875 6.51562 15.8047 5.21484ZM14.1172 13.0898C13.8711 13.793 13.3086 14.3203 12.6406 14.6016C11.5859 15.0234 9.125 14.918 8 14.918C6.83984 14.918 4.37891 15.0234 3.35938 14.6016C2.65625 14.3203 2.12891 13.793 1.84766 13.0898C1.42578 12.0703 1.53125 9.60938 1.53125 8.44922C1.53125 7.32422 1.42578 4.86328 1.84766 3.80859C2.12891 3.14062 2.65625 2.61328 3.35938 2.33203C4.37891 1.91016 6.83984 2.01562 8 2.01562C9.125 2.01562 11.5859 1.91016 12.6406 2.33203C13.3086 2.57812 13.8359 3.14062 14.1172 3.80859C14.5391 4.86328 14.4336 7.32422 14.4336 8.44922C14.4336 9.60938 14.5391 12.0703 14.1172 13.0898Z" fill="#5A7184"/>
</svg>
