<svg width="31" height="31" viewBox="0 0 31 31" fill="none" xmlns="http://www.w3.org/2000/svg">
<circle cx="15.5" cy="15.5" r="15.5" fill="#7A2985"/>
<path d="M19.2335 8H12.7665C10.1382 8 8 10.1382 8 12.7665V19.2335C8 21.8618 10.1382 24 12.7665 24H19.2335C21.8618 24 24 21.8618 24 19.2335V12.7665C24 10.1382 21.8617 8 19.2335 8ZM22.3904 19.2335C22.3904 20.977 20.977 22.3904 19.2335 22.3904H12.7665C11.023 22.3904 9.6096 20.977 9.6096 19.2335V12.7665C9.6096 11.023 11.023 9.6096 12.7665 9.6096H19.2335C20.977 9.6096 22.3904 11.023 22.3904 12.7665V19.2335Z" fill="white"/>
<path d="M16 11.8613C13.7182 11.8613 11.8618 13.7177 11.8618 15.9995C11.8618 18.2812 13.7182 20.1376 16 20.1376C18.2818 20.1376 20.1382 18.2813 20.1382 15.9995C20.1382 13.7177 18.2818 11.8613 16 11.8613ZM16 18.5281C14.6035 18.5281 13.4714 17.396 13.4714 15.9995C13.4714 14.603 14.6035 13.4709 16 13.4709C17.3965 13.4709 18.5286 14.603 18.5286 15.9995C18.5286 17.396 17.3965 18.5281 16 18.5281Z" fill="white"/>
<path d="M20.1464 12.8845C20.694 12.8845 21.138 12.4406 21.138 11.893C21.138 11.3453 20.694 10.9014 20.1464 10.9014C19.5987 10.9014 19.1548 11.3453 19.1548 11.893C19.1548 12.4406 19.5987 12.8845 20.1464 12.8845Z" fill="white"/>
</svg>
