<svg width="580" height="390" viewBox="0 0 580 390" fill="none" xmlns="http://www.w3.org/2000/svg">
<path d="M170.018 95.3712L83.2676 153.914L168.733 282.752L255.484 224.209L170.018 95.3712Z" fill="#F5F5F5"/>
<path d="M210.671 218.134L209.687 224.282L166.551 218.01L167.535 211.863L210.671 218.134Z" fill="#E0E0E0"/>
<path d="M188.948 196.207L195.134 197.106L188.272 239.942L182.085 239.043L188.948 196.207Z" fill="#E0E0E0"/>
<path d="M149.216 141.761C149.278 141.854 140.582 147.83 129.796 155.107C119.011 162.383 110.212 168.211 110.154 168.115C110.095 168.02 118.786 162.048 129.575 154.769C140.365 147.49 149.154 141.668 149.216 141.761Z" fill="#E0E0E0"/>
<path d="M181.127 133.682C181.189 133.776 166.728 143.641 148.833 155.713C130.937 167.785 116.374 177.501 116.312 177.408C116.25 177.314 130.707 167.452 148.609 155.375C166.511 143.297 181.065 133.589 181.127 133.682Z" fill="#E0E0E0"/>
<path d="M187.523 143.329C187.585 143.422 173.124 153.287 155.229 165.36C137.334 177.433 122.77 187.148 122.708 187.055C122.646 186.962 137.104 177.099 155.005 165.022C172.906 152.945 187.461 143.236 187.523 143.329Z" fill="#E0E0E0"/>
<path d="M193.919 152.973C193.981 153.066 179.521 162.931 161.626 175.004C143.73 187.076 129.167 196.792 129.105 196.699C129.043 196.605 143.5 186.743 161.401 174.666C179.303 162.589 193.857 152.88 193.919 152.973Z" fill="#E0E0E0"/>
<path d="M200.317 162.62C200.378 162.713 185.918 172.578 168.022 184.65C150.126 196.722 135.563 206.439 135.501 206.345C135.439 206.251 149.897 196.39 167.799 184.313C185.701 172.236 200.255 162.527 200.317 162.62Z" fill="#E0E0E0"/>
<path d="M460.19 181.744L387.316 230.906L459.088 339.135L531.961 289.973L460.19 181.744Z" fill="#F5F5F5"/>
<path d="M494.314 284.84L493.487 290.004L457.261 284.74L458.087 279.578L494.314 284.84Z" fill="#E0E0E0"/>
<path d="M476.07 266.424L481.269 267.179L475.505 303.154L470.307 302.399L476.07 266.424Z" fill="#E0E0E0"/>
<path d="M442.702 220.701C442.764 220.794 435.469 225.824 426.41 231.933C417.351 238.041 409.955 242.924 409.893 242.831C409.831 242.737 417.124 237.708 426.186 231.599C435.248 225.489 442.64 220.608 442.702 220.701Z" fill="#E0E0E0"/>
<path d="M469.501 213.915C469.563 214.008 457.427 222.305 442.398 232.444C427.369 242.582 415.129 250.73 415.068 250.637C415.006 250.544 427.139 242.249 442.174 232.106C457.208 221.963 469.439 213.822 469.501 213.915Z" fill="#E0E0E0"/>
<path d="M474.873 222.016C474.935 222.109 462.798 230.406 447.769 240.545C432.74 250.685 420.502 258.832 420.44 258.738C420.378 258.644 432.511 250.35 447.546 240.208C462.58 230.065 474.811 221.923 474.873 222.016Z" fill="#E0E0E0"/>
<path d="M480.245 230.116C480.307 230.21 468.171 238.506 453.142 248.645C438.113 258.783 425.874 266.931 425.812 266.838C425.749 266.746 437.883 258.45 452.918 248.308C467.952 238.166 480.183 230.022 480.245 230.116Z" fill="#E0E0E0"/>
<path d="M485.617 238.218C485.679 238.311 473.542 246.607 458.513 256.746C443.484 266.886 431.246 275.033 431.184 274.939C431.122 274.846 443.256 266.551 458.29 256.409C473.324 246.266 485.555 238.125 485.617 238.218Z" fill="#E0E0E0"/>
<path d="M344.919 100.134L265.389 57.207L202.72 175.322L282.25 218.25L344.919 100.134Z" fill="#F5F5F5"/>
<path d="M268.673 181.248L263.629 182.989L250.824 147.285L255.869 145.543L268.673 181.248Z" fill="#E0E0E0"/>
<path d="M276.407 155.635L278.245 160.76L243.089 172.902L241.252 167.779L276.407 155.635Z" fill="#E0E0E0"/>
<path d="M301.386 102.955C301.324 103.072 293.259 98.8448 283.376 93.5167C273.493 88.1885 265.527 83.7667 265.589 83.6489C265.652 83.5311 273.715 87.7587 283.602 93.0916C293.489 98.4244 301.445 102.838 301.386 102.955Z" fill="#E0E0E0"/>
<path d="M320.469 124.197C320.408 124.314 307.061 117.237 290.662 108.391C274.263 99.5455 261.015 92.2766 261.077 92.1596C261.14 92.0426 274.483 99.118 290.887 107.966C307.291 116.815 320.53 124.08 320.469 124.197Z" fill="#E0E0E0"/>
<path d="M315.781 133.036C315.718 133.153 302.371 126.076 285.973 117.23C269.574 108.384 256.326 101.115 256.388 100.998C256.45 100.88 269.794 107.956 286.198 116.805C302.602 125.654 315.843 132.918 315.781 133.036Z" fill="#E0E0E0"/>
<path d="M311.093 141.875C311.032 141.993 297.685 134.915 281.286 126.07C264.887 117.225 251.639 109.955 251.701 109.837C251.764 109.72 265.107 116.796 281.512 125.645C297.917 134.494 311.156 141.758 311.093 141.875Z" fill="#E0E0E0"/>
<path d="M306.407 150.713C306.344 150.831 292.997 143.753 276.599 134.908C260.202 126.063 246.952 118.793 247.014 118.675C247.076 118.557 260.42 125.634 276.824 134.483C293.228 143.332 306.472 150.596 306.407 150.713Z" fill="#E0E0E0"/>
<path opacity="0.2" d="M306.824 0H304.826V34.3067H306.824V0Z" fill="black"/>
<path d="M259.246 75.8077H352.403C352.403 75.8077 343.802 34.2852 305.118 34.2852C270.711 34.2852 259.246 75.8077 259.246 75.8077Z" fill="#E84E1B"/>
<path d="M306.823 0H304.825V34.3067H306.823V0Z" fill="#E84E1B"/>
<path d="M513.235 343.066C513.235 343.178 413.281 343.27 290.01 343.27C166.697 343.27 66.7646 343.178 66.7646 343.066C66.7646 342.954 166.697 342.863 290.01 342.863C413.281 342.863 513.235 342.955 513.235 343.066Z" fill="#263238"/>
<path d="M91.4741 294.217C92.7824 294.311 94.0584 294.67 95.2258 295.273C96.3932 295.876 97.4278 296.711 98.2679 297.727C99.9374 299.773 101.12 302.177 101.726 304.755C103.035 309.688 102.23 315.508 100.835 320.417C95.5419 318.508 92.2769 312.814 90.8006 309.82C88.4674 305.088 87.0994 295.108 91.4741 294.22" fill="#1D4569"/>
<path d="M108.454 326.395C107.66 325.151 107.206 323.718 107.138 322.241C107.07 320.763 107.391 319.294 108.067 317.982C108.766 316.683 109.714 315.537 110.855 314.612C111.997 313.686 113.31 312.999 114.718 312.589C116.01 312.189 117.509 312.022 118.632 312.778C119.137 313.165 119.53 313.681 119.77 314.272C120.011 314.863 120.091 315.509 120.001 316.142C119.804 317.407 119.279 318.598 118.478 319.593C115.905 323.109 112.774 326.034 108.456 326.395" fill="#1D4569"/>
<path d="M109.036 342.876C108.927 342.543 108.847 342.2 108.799 341.852C108.658 341.121 108.474 340.176 108.258 339.044C107.562 335.95 107.366 332.763 107.678 329.606C108.046 326.43 109.244 323.41 111.151 320.856C111.739 320.096 112.414 319.409 113.161 318.809C113.364 318.646 113.574 318.493 113.792 318.352C113.939 318.254 114.024 318.208 114.024 318.218C113.043 319.057 112.149 319.995 111.355 321.015C109.545 323.568 108.405 326.54 108.04 329.656C107.547 333.296 108.158 336.626 108.511 339.002C108.701 340.195 108.854 341.163 108.941 341.834C109.005 342.178 109.037 342.527 109.036 342.876Z" fill="#263238"/>
<path d="M93.1816 301.725C93.2666 301.852 93.3379 301.987 93.3943 302.129C93.5358 302.437 93.7168 302.831 93.9403 303.318C94.4081 304.353 95.0655 305.859 95.8628 307.728C97.4574 311.463 99.5895 316.655 101.817 322.441C104.045 328.227 105.939 333.517 107.258 337.358C107.918 339.279 108.439 340.839 108.785 341.921C108.945 342.434 109.075 342.848 109.176 343.169C109.23 343.312 109.268 343.461 109.289 343.613C109.214 343.48 109.153 343.339 109.107 343.193L108.65 341.968L107.013 337.444C105.632 333.622 103.699 328.358 101.476 322.573C99.2523 316.789 97.1589 311.587 95.6261 307.831L93.8111 303.377C93.6139 302.878 93.4538 302.475 93.3293 302.161C93.2645 302.022 93.215 301.875 93.1816 301.725Z" fill="#263238"/>
<path d="M102.752 331.969C101.162 329.295 98.9627 327.043 96.3373 325.398C93.7118 323.752 90.7354 322.762 87.6547 322.508C86.0903 322.393 84.2072 322.659 83.5097 324.076C82.8121 325.493 83.7455 327.176 84.8112 328.342C87.0795 330.734 89.9992 332.395 93.2022 333.116C96.4052 333.837 99.7482 333.586 102.81 332.394" fill="#1D4569"/>
<path d="M90.0381 326.736C90.3651 326.716 90.6933 326.728 91.0179 326.772C91.4013 326.793 91.783 326.838 92.1609 326.906C92.6017 326.989 93.1152 327.038 93.6612 327.19C94.2641 327.325 94.8594 327.492 95.4445 327.69C96.1209 327.907 96.7849 328.162 97.4335 328.452C98.9188 329.126 100.324 329.967 101.623 330.958C102.905 331.972 104.067 333.132 105.086 334.414C105.525 334.976 105.932 335.564 106.305 336.173C106.639 336.697 106.942 337.241 107.212 337.802C107.445 338.258 107.653 338.727 107.836 339.206C107.988 339.561 108.117 339.925 108.222 340.298C108.338 340.607 108.423 340.927 108.477 341.252C108.4 341.28 108.023 339.916 106.98 337.919C106.698 337.375 106.386 336.846 106.047 336.336C105.668 335.744 105.259 335.173 104.82 334.625C103.804 333.377 102.656 332.245 101.396 331.249C100.12 330.275 98.7439 329.441 97.292 328.761C96.657 328.468 96.0073 328.207 95.3455 327.981C94.7719 327.773 94.1884 327.594 93.597 327.445C91.4286 326.892 90.0296 326.816 90.0381 326.736Z" fill="#263238"/>
<path d="M441.079 82.2697C438.805 82.7977 437.698 85.4365 437.482 87.7804C437.266 90.1243 437.56 92.5984 436.587 94.7364C435.489 97.1427 432.866 98.9164 432.779 101.564C432.725 103.178 433.676 104.696 433.63 106.31C433.552 108.962 430.874 110.965 430.733 113.614C430.632 115.521 431.893 117.352 431.589 119.237C431.353 120.704 430.221 121.86 429.742 123.266C428.787 126.068 430.695 129.153 433.183 130.731C434.573 131.613 436.138 132.179 437.768 132.387C439.398 132.596 441.054 132.442 442.619 131.938C444.184 131.433 445.621 130.59 446.829 129.467C448.037 128.344 448.988 126.968 449.613 125.436C450.989 122.067 450.688 118.274 450.387 114.644C449.455 103.329 448.763 91.9978 448.31 80.6504" fill="#263238"/>
<path d="M434.477 122.196C434.94 121.896 435.302 121.461 435.516 120.948C435.741 120.341 435.832 119.691 435.78 119.044C435.696 118.182 435.507 117.334 435.217 116.519C434.844 115.497 434.706 114.404 434.813 113.321C435.008 112.106 435.869 111.109 436.656 110.128C437.074 109.645 437.425 109.106 437.7 108.528C437.971 107.941 438.015 107.273 437.821 106.656C437.421 105.381 436.184 104.444 435.616 102.973C435.355 102.243 435.312 101.452 435.491 100.697C435.659 99.9893 435.91 99.3039 436.237 98.6552C436.887 97.495 437.402 96.2637 437.774 94.9853C438.315 92.5112 438.063 90.1493 438.433 88.2095C438.638 86.652 439.322 85.1985 440.388 84.0529C440.692 83.76 441.036 83.5126 441.41 83.3181C441.54 83.2492 441.677 83.1968 441.819 83.1621C441.337 83.4353 440.893 83.7718 440.499 84.1628C439.51 85.3152 438.888 86.7414 438.714 88.2555C438.578 89.3007 438.506 90.3534 438.499 91.4075C438.494 92.6368 438.372 93.8629 438.135 95.0688C437.769 96.3771 437.251 97.6376 436.594 98.8245C436.012 100.05 435.478 101.487 435.993 102.83C436.484 104.156 437.73 105.1 438.197 106.535C438.416 107.243 438.364 108.007 438.053 108.679C437.761 109.288 437.388 109.854 436.944 110.361C436.136 111.347 435.326 112.285 435.142 113.376C435.032 114.41 435.151 115.455 435.49 116.437C435.771 117.276 435.944 118.148 436.005 119.031C436.041 119.708 435.923 120.385 435.66 121.008C435.489 121.403 435.215 121.743 434.867 121.993C434.75 122.083 434.617 122.152 434.477 122.196Z" fill="#455A64"/>
<path d="M428.388 140.686L421.407 160.983L392.297 162.557L387.439 173.452L417.831 176.554C419.268 177.153 420.81 177.451 422.364 177.431C423.918 177.411 425.452 177.073 426.873 176.437C428.294 175.802 429.572 174.882 430.63 173.733C431.688 172.585 432.504 171.232 433.028 169.756L441.139 146.922L428.388 140.686Z" fill="#B78876"/>
<path d="M488.602 332.045C488.602 332.045 467.268 263.704 466.816 261.485C466.407 259.48 474.559 210.299 475.585 197.57L446.76 198.655V198.867L434.507 199.552L445.48 339.322H458.741L457.426 292.95C465.605 315.102 477.327 337.672 477.327 337.672L488.602 332.045Z" fill="#B78876"/>
<path d="M457.967 309.569C457.979 309.145 457.806 294.032 457.806 294.032C457.641 294.936 452.721 280.91 452.84 280.058C452.903 279.616 457.967 309.569 457.967 309.569Z" fill="#A36957"/>
<path d="M452.281 273.416C452.215 273.693 452.186 273.978 452.196 274.263C452.163 275.035 452.169 275.808 452.214 276.58C452.233 277.07 452.283 277.605 452.346 278.178C452.41 278.751 452.496 279.364 452.628 279.998C452.897 281.379 453.259 282.739 453.711 284.07C454.673 286.898 455.736 289.374 456.491 291.168C456.849 291.986 457.157 292.69 457.414 293.281C457.511 293.549 457.643 293.802 457.808 294.034C457.767 293.752 457.689 293.477 457.576 293.216C457.398 292.701 457.127 291.961 456.782 291.05C456.101 289.226 455.081 286.734 454.13 283.932C453.684 282.618 453.315 281.278 453.026 279.92C452.886 279.296 452.794 278.695 452.709 278.133C452.624 277.572 452.564 277.041 452.525 276.56C452.434 275.595 452.393 274.808 452.37 274.265C452.379 273.979 452.349 273.694 452.281 273.416Z" fill="#A36957"/>
<path d="M445.23 340.01L445.224 338.753L458.812 338.156L458.849 343.339L458.011 343.396C454.282 343.616 439.032 344.25 436.536 343.496C433.752 342.654 445.23 340.01 445.23 340.01Z" fill="#455A64"/>
<path d="M459.038 343.025C458.962 343.042 458.884 343.051 458.806 343.052L458.139 343.095L455.682 343.211C453.607 343.294 450.739 343.368 447.57 343.385C444.402 343.402 441.532 343.347 439.457 343.282L436.999 343.189L436.332 343.151C436.254 343.151 436.176 343.143 436.1 343.127C436.177 343.117 436.254 343.114 436.332 343.118L437.001 343.124L439.458 343.166C441.534 343.2 444.401 343.232 447.569 343.219C450.736 343.206 453.601 343.147 455.678 343.094L458.136 343.031L458.804 343.018C458.882 343.013 458.96 343.016 459.038 343.025Z" fill="#263238"/>
<path d="M440.828 343.467C440.659 342.624 440.197 341.869 439.524 341.34C439.93 341.519 440.272 341.819 440.505 342.198C440.738 342.578 440.851 343.021 440.828 343.467Z" fill="#263238"/>
<path d="M444.81 341.411C444.771 341.435 444.578 341.202 444.381 340.889C444.185 340.576 444.054 340.303 444.091 340.279C444.129 340.255 444.323 340.487 444.519 340.8C444.715 341.113 444.848 341.387 444.81 341.411Z" fill="#263238"/>
<path d="M445.904 340.824C445.874 340.858 445.661 340.716 445.427 340.506C445.194 340.296 445.028 340.097 445.058 340.063C445.088 340.03 445.303 340.172 445.536 340.382C445.77 340.592 445.932 340.79 445.904 340.824Z" fill="#263238"/>
<path d="M446.589 339.533C446.364 339.619 446.123 339.651 445.884 339.627C445.646 339.657 445.404 339.632 445.177 339.555C445.402 339.471 445.642 339.439 445.881 339.461C446.119 339.432 446.361 339.456 446.589 339.533Z" fill="#263238"/>
<path d="M446.824 338.625C446.581 338.757 446.313 338.837 446.037 338.859C445.762 338.881 445.485 338.845 445.225 338.753C445.489 338.709 445.757 338.689 446.025 338.694C446.289 338.646 446.556 338.623 446.824 338.625Z" fill="#263238"/>
<path d="M444.347 340.223C444.059 340.274 443.765 340.274 443.478 340.223C443.163 340.185 442.853 340.117 442.55 340.021C442.366 339.968 442.188 339.895 442.02 339.802C441.916 339.743 441.839 339.646 441.804 339.532C441.79 339.467 441.794 339.399 441.818 339.337C441.841 339.274 441.881 339.22 441.935 339.181C442.265 339.015 442.643 338.971 443.002 339.055C443.362 339.14 443.681 339.348 443.906 339.643C444.041 339.815 444.138 340.014 444.191 340.227C444.218 340.302 444.226 340.382 444.215 340.461C444.126 340.191 443.991 339.938 443.816 339.714C443.62 339.484 443.362 339.316 443.073 339.231C442.904 339.174 442.725 339.152 442.548 339.165C442.37 339.179 442.196 339.227 442.037 339.309C441.9 339.412 441.955 339.576 442.108 339.667C442.264 339.754 442.428 339.824 442.597 339.876C442.889 339.978 443.189 340.056 443.493 340.11C444.016 340.196 444.347 340.196 444.347 340.223Z" fill="#263238"/>
<path d="M444.121 340.268C444.015 340.085 443.978 339.869 444.019 339.661C444.044 339.431 444.124 339.211 444.251 339.02C444.324 338.889 444.428 338.779 444.554 338.7C444.68 338.622 444.825 338.577 444.973 338.57C445.061 338.589 445.138 338.642 445.189 338.717C445.239 338.792 445.258 338.884 445.242 338.974C445.222 339.113 445.172 339.246 445.096 339.364C444.983 339.557 444.845 339.736 444.688 339.895C444.554 340.053 444.384 340.175 444.192 340.251C444.176 340.23 444.364 340.095 444.602 339.815C444.741 339.653 444.862 339.476 444.964 339.289C445.083 339.103 445.163 338.77 444.945 338.731C444.728 338.711 444.507 338.93 444.374 339.105C444.253 339.275 444.17 339.47 444.131 339.676C444.11 339.872 444.107 340.071 444.121 340.268Z" fill="#263238"/>
<path d="M458.749 339.297C458.749 339.327 458.362 339.261 457.751 339.336C456.954 339.426 456.2 339.743 455.575 340.249C454.95 340.755 454.48 341.43 454.22 342.195C454.016 342.78 453.997 343.173 453.967 343.169C453.951 343.078 453.951 342.986 453.967 342.895C453.99 342.645 454.038 342.398 454.112 342.158C454.351 341.356 454.826 340.645 455.474 340.12C456.122 339.595 456.912 339.281 457.741 339.219C457.989 339.199 458.238 339.204 458.484 339.236C458.575 339.24 458.665 339.261 458.749 339.297Z" fill="#263238"/>
<path d="M452.245 341.94C450.94 342.186 449.602 342.194 448.294 341.962C448.299 341.914 449.181 341.972 450.27 341.962C451.359 341.952 452.236 341.892 452.245 341.94Z" fill="#263238"/>
<path d="M454.891 341.911C454.923 341.943 454.819 342.099 454.729 342.301C454.64 342.502 454.592 342.687 454.545 342.684C454.499 342.682 454.475 342.469 454.58 342.234C454.685 341.998 454.862 341.874 454.891 341.911Z" fill="#263238"/>
<path d="M455.885 340.653C455.917 340.685 455.831 340.828 455.691 340.97C455.551 341.113 455.412 341.204 455.381 341.172C455.35 341.14 455.436 340.998 455.575 340.855C455.715 340.711 455.852 340.621 455.885 340.653Z" fill="#263238"/>
<path d="M457.312 340.075C457.302 340.122 457.122 340.12 456.925 340.192C456.728 340.264 456.584 340.371 456.548 340.34C456.513 340.31 456.626 340.12 456.872 340.035C457.118 339.95 457.325 340.033 457.312 340.075Z" fill="#263238"/>
<path d="M458.327 339.802C458.344 339.845 458.266 339.915 458.154 339.958C458.042 340.001 457.938 340.004 457.922 339.962C457.906 339.92 457.983 339.848 458.095 339.805C458.207 339.762 458.31 339.759 458.327 339.802Z" fill="#263238"/>
<path d="M477.063 338.8L476.548 337.656L488.701 331.494L490.84 336.207L490.098 336.605C486.785 338.347 473.131 345.226 470.548 345.569C467.667 345.954 477.063 338.8 477.063 338.8Z" fill="#455A64"/>
<path d="M490.885 335.846C490.822 335.892 490.754 335.932 490.684 335.966L490.093 336.278L487.899 337.398C486.043 338.334 483.454 339.582 480.569 340.908C477.685 342.234 475.045 343.368 473.126 344.167L470.846 345.097L470.222 345.338C470.151 345.371 470.076 345.398 470 345.416C470.066 345.375 470.136 345.34 470.209 345.312L470.821 345.041L473.081 344.063C474.988 343.237 477.617 342.082 480.505 340.76C483.393 339.439 485.98 338.203 487.852 337.297L490.068 336.224L490.673 335.937C490.741 335.9 490.812 335.87 490.885 335.846Z" fill="#263238"/>
<path d="M474.451 343.771C473.955 343.071 473.226 342.573 472.397 342.367C472.841 342.363 473.274 342.496 473.641 342.746C474.008 342.997 474.291 343.355 474.451 343.771Z" fill="#263238"/>
<path d="M477.249 340.253C477.225 340.291 476.955 340.157 476.647 339.954C476.339 339.751 476.106 339.554 476.134 339.516C476.163 339.478 476.429 339.612 476.737 339.816C477.044 340.019 477.274 340.214 477.249 340.253Z" fill="#263238"/>
<path d="M478.006 339.265C477.993 339.309 477.74 339.265 477.441 339.171C477.143 339.077 476.911 338.963 476.925 338.919C476.939 338.876 477.192 338.919 477.491 339.013C477.789 339.107 478.02 339.221 478.006 339.265Z" fill="#263238"/>
<path d="M478.111 337.805C478.129 337.846 477.859 338.015 477.505 338.181C477.3 338.307 477.07 338.384 476.831 338.408C476.812 338.366 477.082 338.198 477.436 338.031C477.641 337.905 477.872 337.828 478.111 337.805Z" fill="#263238"/>
<path d="M477.955 336.881C477.986 336.912 477.736 337.198 477.337 337.419C477.105 337.577 476.831 337.661 476.552 337.659C476.775 337.508 477.011 337.38 477.258 337.274C477.478 337.122 477.712 336.99 477.955 336.881Z" fill="#263238"/>
<path d="M476.344 339.359C476.102 339.523 475.834 339.644 475.551 339.715C475.248 339.811 474.937 339.877 474.623 339.913C474.433 339.942 474.241 339.949 474.05 339.934C473.931 339.923 473.821 339.867 473.741 339.778C473.702 339.724 473.679 339.661 473.674 339.594C473.67 339.528 473.685 339.462 473.718 339.404C473.953 339.117 474.279 338.921 474.642 338.85C475.004 338.779 475.379 338.837 475.704 339.014C475.897 339.115 476.066 339.257 476.202 339.428C476.295 339.55 476.327 339.63 476.319 339.634C476.128 339.425 475.902 339.251 475.653 339.119C475.38 338.99 475.076 338.943 474.777 338.985C474.6 339.002 474.428 339.055 474.271 339.14C474.115 339.225 473.976 339.341 473.864 339.481C473.78 339.632 473.896 339.758 474.074 339.779C474.251 339.793 474.429 339.789 474.605 339.767C474.912 339.739 475.217 339.687 475.516 339.611C476.031 339.471 476.333 339.334 476.344 339.359Z" fill="#263238"/>
<path d="M476.157 339.493C475.985 339.37 475.864 339.187 475.817 338.98C475.748 338.76 475.732 338.526 475.771 338.298C475.784 338.149 475.835 338.006 475.918 337.882C476.001 337.758 476.114 337.658 476.247 337.59C476.441 337.53 476.894 337.924 476.925 338.071C476.974 338.218 476.693 338.142 476.682 338.266C476.658 338.489 476.606 338.709 476.528 338.919C476.47 339.119 476.364 339.301 476.218 339.449C476.196 339.436 476.312 339.234 476.416 338.882C476.477 338.676 476.516 338.465 476.532 338.251C476.566 338.033 476.504 337.696 476.289 337.75C476.082 337.822 475.969 338.113 475.92 338.327C475.878 338.533 475.881 338.746 475.929 338.951C475.989 339.138 476.065 339.32 476.157 339.493Z" fill="#263238"/>
<path d="M489.107 332.562C489.116 332.592 488.739 332.69 488.212 333.011C487.522 333.423 486.963 334.023 486.598 334.743C486.234 335.463 486.079 336.273 486.153 337.078C486.204 337.696 486.347 338.062 486.318 338.072C486.266 337.995 486.228 337.911 486.205 337.821C486.124 337.584 486.068 337.339 486.038 337.09C485.93 336.259 486.075 335.415 486.452 334.669C486.83 333.922 487.424 333.309 488.154 332.91C488.372 332.788 488.601 332.69 488.839 332.617C488.925 332.584 489.015 332.565 489.107 332.562Z" fill="#263238"/>
<path d="M484.244 337.661C483.153 338.424 481.935 338.983 480.649 339.312C480.633 339.267 481.462 338.956 482.452 338.499C483.442 338.041 484.22 337.621 484.244 337.661Z" fill="#263238"/>
<path d="M486.648 336.542C486.691 336.559 486.66 336.744 486.661 336.967C486.663 337.19 486.692 337.377 486.648 337.393C486.604 337.41 486.493 337.226 486.493 336.968C486.493 336.71 486.608 336.524 486.648 336.542Z" fill="#263238"/>
<path d="M487.045 334.986C487.088 335.001 487.067 335.167 486.998 335.355C486.929 335.543 486.839 335.684 486.796 335.667C486.754 335.651 486.775 335.486 486.844 335.298C486.913 335.109 487.003 334.97 487.045 334.986Z" fill="#263238"/>
<path d="M488.111 333.869C488.121 333.915 487.957 333.988 487.802 334.135C487.647 334.282 487.564 334.438 487.519 334.425C487.474 334.412 487.5 334.191 487.691 334.015C487.882 333.839 488.107 333.825 488.111 333.869Z" fill="#263238"/>
<path d="M488.927 333.198C488.959 333.23 488.917 333.326 488.832 333.413C488.748 333.5 488.654 333.544 488.622 333.513C488.59 333.482 488.631 333.384 488.716 333.297C488.8 333.21 488.894 333.166 488.927 333.198Z" fill="#263238"/>
<path d="M473.716 174.434L471.453 146.588L483.075 146.797C483.075 146.797 483.617 142.692 481.901 133.686C480.851 128.165 477.205 124.778 473.116 122.766V122.688L472.761 122.595C469.392 121.07 465.794 120.123 462.116 119.793L447.85 119.959C447.85 119.959 436.952 118.588 430.92 126.424C428.596 129.442 421.408 150.101 421.408 150.101L438.531 158.419L436.902 146.963C436.902 146.963 437.225 155.268 438.277 157.9C438.862 159.366 440.558 163.919 440.558 163.919L440.336 177.658L473.716 174.434Z" fill="#66B22E"/>
<path d="M465.846 142.55L463.729 151.649H483.704L482.39 136.395L465.846 142.55Z" fill="#66B22E"/>
<path d="M483.704 151.647C482.832 151.48 481.947 151.391 481.06 151.383C479.423 151.286 477.158 151.205 474.654 151.216C472.15 151.227 469.884 151.338 468.248 151.469C467.361 151.495 466.478 151.605 465.61 151.797C466.494 151.859 467.382 151.854 468.265 151.782C469.901 151.731 472.16 151.672 474.656 151.66C477.152 151.647 479.412 151.681 481.049 151.697C481.934 151.75 482.822 151.734 483.704 151.647Z" fill="#263238"/>
<path d="M464.984 136.318C464.888 137.086 464.866 137.861 464.918 138.633C464.933 140.061 464.984 142.032 465.068 144.208C465.151 146.384 465.252 148.354 465.347 149.779C465.354 150.552 465.436 151.323 465.591 152.081C465.688 151.313 465.71 150.538 465.658 149.766C465.643 148.339 465.592 146.367 465.508 144.191C465.423 142.015 465.324 140.045 465.229 138.621C465.222 137.847 465.139 137.076 464.984 136.318Z" fill="#263238"/>
<g opacity="0.3">
<path opacity="0.3" d="M446.807 144.199C446.807 144.199 451.247 177.402 463.728 176.523C463.728 176.523 469.347 176.456 471.152 172.689V171.207L446.807 144.199Z" fill="black"/>
</g>
<g opacity="0.3">
<path opacity="0.3" d="M464.984 138.275L462.595 154.552L464.141 157.409L466.688 151.824L465.611 151.798L464.984 138.275Z" fill="black"/>
</g>
<path d="M440.557 163.924C440.413 163.679 440.299 163.417 440.22 163.144C440.026 162.636 439.768 161.891 439.47 160.965C438.693 158.548 438.055 156.088 437.559 153.597C437.065 151.103 436.748 148.577 436.612 146.038C436.566 145.064 436.552 144.275 436.566 143.73C436.55 143.446 436.57 143.162 436.624 142.883C436.688 142.883 436.731 144.085 436.897 146.018C437.115 148.536 437.468 151.039 437.954 153.518C438.528 156.421 439.217 159.012 439.742 160.881C439.987 161.748 440.196 162.486 440.368 163.095C440.465 163.362 440.528 163.641 440.557 163.924Z" fill="#263238"/>
<path d="M445.604 173.465C445.497 173.498 445.189 172.781 444.914 171.866C444.684 171.324 444.58 170.737 444.609 170.15C444.715 170.117 445.025 170.833 445.299 171.749C445.529 172.29 445.633 172.877 445.604 173.465Z" fill="#263238"/>
<path d="M447.329 173.338C446.745 171.773 446.72 170.052 447.258 168.471C447.324 169.281 447.329 170.094 447.275 170.905C447.353 171.714 447.371 172.527 447.329 173.338Z" fill="#263238"/>
<path d="M438.879 158.808C438.828 158.908 434.843 157.001 429.979 154.55C425.115 152.098 421.209 150.026 421.258 149.927C421.308 149.829 425.292 151.733 430.159 154.186C435.025 156.639 438.928 158.705 438.879 158.808Z" fill="#263238"/>
<path d="M445.904 122.658C445.993 118.712 446.015 114.556 446.015 114.556C446.015 114.556 440.997 113.581 440.123 106.922C439.288 100.571 441.621 85.669 441.621 85.669C448.951 82.8742 456.568 85.4077 461.59 91.3981L460.344 123.436C460.198 127.155 456.913 129.988 452.965 129.805C448.976 129.616 445.816 126.418 445.904 122.658Z" fill="#B78876"/>
<path d="M446.916 103.74C446.441 103.576 445.947 103.473 445.446 103.434C445.214 103.403 444.997 103.351 444.962 103.19C444.949 102.948 445.009 102.708 445.135 102.501C445.368 101.941 445.611 101.354 445.866 100.74C446.54 99.2492 447.095 97.7058 447.524 96.125C446.732 97.5577 446.056 99.0524 445.501 100.594C445.256 101.213 445.022 101.804 444.799 102.368C444.646 102.646 444.595 102.969 444.655 103.281C444.687 103.365 444.737 103.44 444.801 103.501C444.866 103.562 444.943 103.607 445.027 103.633C445.155 103.672 445.287 103.694 445.42 103.699C445.915 103.776 446.417 103.79 446.916 103.74Z" fill="#263238"/>
<path d="M446.012 114.556C449.107 114.684 452.176 113.943 454.879 112.416C454.879 112.416 452.625 116.916 446.063 116.124L446.012 114.556Z" fill="#A36957"/>
<path d="M446.931 105.933C446.833 105.911 446.732 105.922 446.641 105.965C446.55 106.007 446.476 106.078 446.429 106.167C446.371 106.272 446.351 106.394 446.373 106.512C446.394 106.631 446.456 106.738 446.547 106.816C446.638 106.894 446.753 106.937 446.872 106.939C446.991 106.941 447.108 106.901 447.201 106.826C447.294 106.751 447.359 106.646 447.384 106.528C447.409 106.411 447.393 106.288 447.339 106.181C447.284 106.074 447.195 105.989 447.085 105.941C446.976 105.893 446.853 105.885 446.738 105.918" fill="#A36957"/>
<path d="M447.141 106.022C447.182 105.985 446.996 105.761 446.6 105.848C446.481 105.878 446.373 105.939 446.286 106.025C446.199 106.111 446.136 106.219 446.103 106.338C446.062 106.488 446.066 106.647 446.115 106.794C446.163 106.942 446.254 107.072 446.376 107.167C446.504 107.257 446.655 107.306 446.81 107.307C446.966 107.308 447.118 107.261 447.246 107.173C447.349 107.102 447.431 107.004 447.48 106.888C447.53 106.773 447.545 106.646 447.526 106.522C447.448 106.111 447.144 106.045 447.139 106.102C447.105 106.155 447.244 106.297 447.216 106.54C447.213 106.6 447.194 106.657 447.162 106.708C447.129 106.758 447.085 106.799 447.032 106.826C446.971 106.858 446.903 106.874 446.834 106.871C446.765 106.868 446.698 106.846 446.64 106.809C446.587 106.763 446.546 106.705 446.522 106.639C446.497 106.573 446.49 106.501 446.501 106.432C446.511 106.37 446.535 106.312 446.571 106.262C446.607 106.212 446.655 106.171 446.71 106.143C446.923 106.021 447.114 106.08 447.141 106.022Z" fill="#263238"/>
<path d="M458.548 99.2224C457.766 101.051 455.857 102.459 456.122 104.434C456.293 105.707 457.103 106.895 456.945 108.171C456.747 109.773 455.097 110.884 454.863 112.481C454.577 114.44 456.467 115.963 457.221 117.791C458.32 120.453 456.912 123.448 456.881 126.331C456.927 128.545 457.766 130.667 459.244 132.305C460.722 133.942 462.738 134.984 464.919 135.237C466.685 135.384 468.674 134.847 469.588 133.317C470.344 132.054 470.193 130.451 470.646 129.05C471.321 126.962 473.293 125.434 473.709 123.278C474.467 119.349 469.759 116.098 470.07 112.107C470.202 110.403 471.245 108.915 471.689 107.265C471.97 106.178 471.992 105.039 471.752 103.941C471.512 102.844 471.017 101.82 470.308 100.953C469.148 99.5593 467.46 98.6428 466.471 97.1203C465.349 95.3934 465.311 93.2039 464.887 91.1837C464.368 88.7094 463.236 86.4081 461.597 84.4949C459.957 82.5817 457.863 81.1192 455.51 80.2442C453.158 79.3691 450.624 79.11 448.145 79.4911C445.666 79.8723 443.324 80.8812 441.337 82.4235C441.337 82.4235 440.213 87.5645 445.444 88.4241C450.676 89.2836 453.1 88.2915 453.691 90.4068C453.556 91.28 453.628 92.1731 453.901 93.0129C454.174 93.8527 454.64 94.6153 455.262 95.2381C457.421 97.5992 459.454 97.1055 458.548 99.2224Z" fill="#263238"/>
<path d="M466.897 134.877C466.737 134.878 466.576 134.862 466.419 134.827C465.965 134.75 465.519 134.629 465.089 134.464C463.492 133.848 462.092 132.802 461.041 131.442C460.301 130.516 459.719 129.472 459.319 128.352C458.868 127.066 458.631 125.713 458.617 124.348C458.598 122.844 458.786 121.346 459.174 119.894C459.375 119.127 459.622 118.374 459.914 117.637C460.237 116.906 460.521 116.158 460.765 115.397C460.972 114.648 460.969 113.856 460.757 113.109C460.53 112.371 460.236 111.656 459.878 110.973C459.521 110.294 459.22 109.587 458.977 108.859C458.738 108.137 458.683 107.367 458.814 106.618C459.124 105.148 460.007 104.061 460.53 102.945C461.029 101.912 461.268 100.771 461.226 99.6226C461.154 97.9419 460.55 96.3287 459.501 95.0206C459.092 94.5616 458.653 94.1306 458.187 93.7305C458.729 94.039 459.214 94.4407 459.62 94.9176C460.748 96.2269 461.413 97.8773 461.51 99.6093C461.572 100.809 461.337 102.006 460.825 103.091C460.292 104.248 459.438 105.343 459.174 106.688C458.91 108.033 459.538 109.438 460.227 110.796C460.599 111.501 460.904 112.239 461.139 113.002C461.369 113.817 461.373 114.681 461.149 115.498C460.902 116.275 460.613 117.038 460.284 117.783C459.996 118.504 459.752 119.242 459.552 119.992C459.168 121.408 458.977 122.87 458.985 124.338C458.961 126.837 459.762 129.272 461.261 131.26C462.268 132.603 463.607 133.656 465.143 134.314C466.243 134.764 466.907 134.831 466.897 134.877Z" fill="#455A64"/>
<path d="M466.127 95.5185C465.75 95.6173 465.364 95.6754 464.974 95.6917C463.914 95.8064 462.842 95.7781 461.789 95.6074C460.99 95.4886 460.223 95.2097 459.532 94.7872C458.841 94.3647 458.241 93.8072 457.768 93.1473C457.324 92.3151 456.971 91.4372 456.713 90.5288C456.385 89.6199 455.765 88.848 454.951 88.3363C453.259 87.2544 451.269 87.1218 449.527 86.9081C447.93 86.8298 446.378 86.3426 445.019 85.4924C444.109 84.881 443.452 83.9541 443.174 82.8872C443.109 82.5991 443.088 82.3025 443.115 82.0081C443.118 81.9049 443.139 81.803 443.177 81.707C443.189 82.0918 443.239 82.4743 443.327 82.849C443.648 83.8454 444.304 84.6972 445.183 85.2568C446.519 86.0409 448.026 86.4803 449.57 86.536C451.296 86.7326 453.36 86.841 455.169 87.9954C456.054 88.5535 456.727 89.3951 457.08 90.3853C457.326 91.2708 457.661 92.1286 458.08 92.9453C458.974 94.2069 460.326 95.062 461.841 95.3251C462.87 95.5162 463.918 95.5864 464.963 95.5341C465.35 95.4998 465.739 95.4946 466.127 95.5185Z" fill="#455A64"/>
<path d="M464.208 89.1665C463.918 89.271 463.61 89.3168 463.302 89.3015C461.857 89.311 460.465 88.7513 459.423 87.7415C458.952 87.2609 458.549 86.7177 458.224 86.1269C457.528 84.9405 456.855 83.4749 455.409 82.8727C454.016 82.3993 452.532 82.2675 451.078 82.4882C449.85 82.6523 448.605 82.6418 447.38 82.457C446.54 82.3318 445.75 81.9747 445.098 81.425C444.925 81.2741 444.772 81.101 444.643 80.9102C444.556 80.7792 444.517 80.7074 444.528 80.6988C444.561 80.6739 444.745 80.95 445.198 81.3026C445.855 81.78 446.623 82.0799 447.427 82.1738C448.631 82.313 449.847 82.2934 451.046 82.1153C452.563 81.8648 454.119 81.9972 455.574 82.5006C456.317 82.8369 456.956 83.3718 457.42 84.0474C457.828 84.6569 458.204 85.2881 458.546 85.9381C458.847 86.5067 459.222 87.0325 459.66 87.502C460.049 87.9001 460.498 88.2343 460.99 88.4926C461.709 88.8734 462.5 89.0959 463.31 89.1455C463.881 89.1767 464.203 89.1314 464.208 89.1665Z" fill="#455A64"/>
<path d="M469.205 133.194C469.165 133.176 469.412 132.674 469.697 131.712C470.086 130.355 470.26 128.944 470.213 127.532C470.152 125.44 469.586 123.396 468.564 121.575C467.998 120.554 467.139 119.643 466.439 118.522C466.065 117.948 465.801 117.31 465.659 116.639C465.54 115.933 465.599 115.209 465.831 114.533C466.264 113.187 467.041 112.052 467.208 110.814C467.415 109.572 466.793 108.44 466.203 107.433C465.898 106.932 465.621 106.414 465.375 105.882C465.148 105.365 465 104.815 464.937 104.253C464.864 103.261 464.894 102.265 465.024 101.279C465.273 99.8893 465.146 98.4576 464.658 97.1342C464.44 96.6685 464.129 96.253 463.745 95.9135C463.749 95.9073 463.781 95.9221 463.839 95.958C463.926 96.009 464.009 96.0686 464.085 96.1358C464.384 96.3928 464.627 96.709 464.799 97.0648C465.36 98.4014 465.536 99.8703 465.308 101.303C465.199 102.269 465.186 103.243 465.269 104.212C465.456 105.304 465.884 106.339 466.522 107.241C466.852 107.767 467.133 108.322 467.364 108.9C467.606 109.525 467.686 110.203 467.596 110.868C467.408 112.233 466.61 113.387 466.211 114.655C466 115.268 465.944 115.925 466.05 116.565C466.182 117.187 466.426 117.779 466.77 118.311C467.434 119.389 468.298 120.317 468.882 121.388C469.92 123.267 470.475 125.379 470.496 127.53C470.521 128.969 470.301 130.401 469.846 131.765C469.72 132.134 469.571 132.493 469.4 132.843C469.351 132.968 469.285 133.086 469.205 133.194Z" fill="#455A64"/>
<path d="M437.707 278.528C437.707 278.528 432.499 228.731 432.2 210.33C431.902 191.929 440.402 173.775 440.402 173.775L473.719 172.354C473.719 172.354 480.305 191.024 480.423 198.866C480.655 214.105 476.408 229.155 476.897 241.245L478.011 278.529" fill="#263238"/>
<path d="M479.122 217.307C478.953 217.459 478.772 217.597 478.581 217.722L478.278 217.938C478.174 218.027 478.072 218.14 477.955 218.25C477.677 218.5 477.428 218.781 477.213 219.088C476.137 220.414 475.352 222.792 474.606 225.753C474.222 227.391 473.656 228.981 472.92 230.491C472.705 230.904 472.458 231.298 472.18 231.67C472.036 231.858 471.904 232.06 471.745 232.237L471.231 232.755C470.5 233.443 469.651 233.993 468.726 234.376C466.861 235.201 464.755 235.592 462.832 236.565C460.869 237.633 459.352 239.377 458.556 241.479C457.618 243.593 457.049 245.812 456.267 247.883C455.622 249.949 454.416 251.792 452.787 253.203C451.186 254.325 449.284 254.927 447.335 254.927C445.541 255.032 443.879 254.98 442.39 255.208C441.046 255.347 439.761 255.837 438.66 256.627C437.856 257.258 437.253 258.114 436.927 259.088C436.718 259.703 436.673 260.363 436.798 261.001C436.884 261.439 437.006 261.649 436.979 261.66C436.856 261.463 436.768 261.246 436.719 261.019C436.557 260.367 436.577 259.683 436.777 259.041C437.088 258.021 437.695 257.119 438.519 256.449C439.641 255.611 440.961 255.085 442.347 254.924C443.865 254.674 445.544 254.71 447.312 254.591C449.191 254.58 451.022 253.992 452.562 252.906C454.126 251.53 455.281 249.741 455.896 247.741C456.665 245.694 457.23 243.472 458.188 241.312C459.021 239.126 460.605 237.314 462.652 236.208C464.653 235.206 466.758 234.827 468.577 234.031C469.466 233.668 470.283 233.146 470.989 232.491L471.481 232.002C471.636 231.831 471.762 231.638 471.902 231.461C472.173 231.104 472.414 230.725 472.624 230.328C473.361 228.845 473.933 227.284 474.33 225.674C475.11 222.728 475.95 220.315 477.088 218.988C477.317 218.682 477.58 218.403 477.873 218.158C477.996 218.048 478.105 217.939 478.214 217.853L478.533 217.65C478.72 217.52 478.917 217.405 479.122 217.307Z" fill="#FAFAFA"/>
<path d="M479.328 194.266C479.361 194.486 479.376 194.709 479.372 194.933C479.368 195.575 479.29 196.214 479.14 196.838C478.473 199.12 477.166 201.158 475.376 202.708C474.182 203.805 472.874 204.769 471.474 205.582C469.981 206.476 468.334 207.327 466.646 208.288C464.868 209.252 463.21 210.427 461.709 211.79C460.172 213.331 458.907 215.124 457.968 217.094C457.017 219.087 455.934 221.012 454.725 222.857C454.112 223.723 453.403 224.515 452.61 225.216C451.838 225.873 450.994 226.44 450.095 226.905C448.432 227.727 446.699 228.396 444.918 228.907C443.265 229.423 441.723 229.88 440.375 230.449C439.154 230.941 437.992 231.569 436.909 232.321C436.096 232.891 435.364 233.572 434.734 234.344C434.212 235.016 433.774 235.749 433.429 236.528C433.483 236.312 433.555 236.1 433.644 235.896C433.896 235.306 434.221 234.751 434.61 234.243C435.229 233.439 435.958 232.729 436.776 232.133C437.861 231.352 439.03 230.697 440.262 230.183C441.621 229.589 443.171 229.114 444.815 228.585C446.572 228.066 448.28 227.393 449.919 226.573C450.791 226.117 451.608 225.563 452.356 224.921C453.123 224.237 453.809 223.466 454.401 222.624C455.595 220.791 456.667 218.879 457.609 216.902C458.569 214.895 459.863 213.068 461.434 211.501C462.962 210.121 464.65 208.933 466.461 207.962C468.162 207.005 469.812 206.168 471.301 205.292C472.689 204.502 473.989 203.565 475.18 202.496C476.953 200.996 478.272 199.023 478.984 196.802C479.188 195.971 479.303 195.121 479.328 194.266Z" fill="#FAFAFA"/>
<path d="M432.364 212.968C432.334 212.922 432.311 212.871 432.297 212.817C431.996 212.073 431.97 211.244 432.225 210.482C432.655 208.894 434.365 206.918 437.122 205.928C438.493 205.453 440.05 205.166 441.671 204.738C443.021 204.517 444.298 203.972 445.395 203.149C446.492 202.326 447.376 201.248 447.973 200.008C448.417 199.099 448.803 198.163 449.129 197.205C449.733 195.129 450.555 193.125 451.58 191.224C452.757 189.356 454.54 187.957 456.625 187.268C458.521 186.648 460.455 186.153 462.414 185.786C464.163 185.448 465.857 184.867 467.447 184.057C468.794 183.29 469.957 182.234 470.853 180.962C472.174 179.116 472.927 176.919 473.019 174.644C473.021 173.81 472.966 172.976 472.854 172.148C473.087 172.959 473.195 173.801 473.175 174.644C473.143 176.968 472.415 179.227 471.087 181.126C470.179 182.447 468.992 183.547 467.611 184.348C465.999 185.188 464.278 185.793 462.498 186.148C460.558 186.522 458.642 187.018 456.764 187.635C454.763 188.298 453.052 189.641 451.924 191.435C450.914 193.312 450.101 195.291 449.5 197.339C449.166 198.313 448.77 199.264 448.315 200.187C447.69 201.471 446.767 202.584 445.625 203.433C444.484 204.282 443.156 204.842 441.755 205.064C440.111 205.483 438.564 205.752 437.212 206.202C434.531 207.124 432.828 209.018 432.375 210.53C432.182 211.112 432.131 211.732 432.227 212.337C432.313 212.747 432.382 212.961 432.364 212.968Z" fill="#FAFAFA"/>
<path d="M476.463 255.074C476.499 255.235 476.517 255.399 476.517 255.563C476.533 256.037 476.485 256.511 476.375 256.972C475.886 258.662 474.858 260.142 473.451 261.184C472.518 261.935 471.486 262.553 470.385 263.021C469.125 263.533 467.84 263.981 466.535 264.363C465.107 264.778 463.709 265.292 462.352 265.904C460.914 266.576 459.62 267.528 458.546 268.704C457.418 269.896 456.444 271.2 455.364 272.347C454.329 273.467 453.126 274.416 451.8 275.161C449.543 276.403 447.017 277.065 444.446 277.09C442.722 277.111 441.008 276.824 439.384 276.241C438.942 276.089 438.513 275.903 438.099 275.686C437.949 275.622 437.807 275.543 437.674 275.448C437.832 275.485 437.986 275.54 438.133 275.612C438.558 275.796 438.992 275.956 439.434 276.091C441.052 276.607 442.744 276.847 444.44 276.802C446.956 276.739 449.418 276.063 451.619 274.834C452.906 274.099 454.072 273.169 455.077 272.074C456.135 270.942 457.104 269.64 458.255 268.423C459.363 267.212 460.698 266.233 462.183 265.544C463.559 264.929 464.977 264.415 466.426 264.006C467.793 263.586 469.092 263.197 470.255 262.71C471.334 262.266 472.348 261.676 473.271 260.959C474.653 259.966 475.686 258.556 476.219 256.931C476.363 256.322 476.445 255.7 476.463 255.074Z" fill="#FAFAFA"/>
<path d="M472.665 151.681L466.223 151.837C465.971 153.148 465.477 154.398 464.766 155.524C459.379 146.092 455.202 133.455 454.165 128.38C454.32 127.872 454.494 127.311 454.718 126.684C454.879 125.736 454.85 124.764 454.633 123.828C454.453 122.697 454.139 121.176 454.044 120.474C453.758 118.328 453.415 117.991 452.673 118.233C451.663 118.563 453.087 124.261 452.26 124.384C451.815 124.45 451.271 122.498 451.113 120.897C450.956 119.296 450.238 114.37 449.713 114.042C448.943 113.56 448.273 114.322 448.468 115.914C448.664 117.528 448.913 122.341 448.073 122.406C447.247 122.47 446.552 114.304 446.552 114.304C446.552 114.304 446.683 112.527 445.712 112.569C443.959 112.647 445.329 121.256 445.48 122.071C445.584 122.639 444.674 122.743 444.594 122.127C444.512 121.493 444.089 113.96 442.305 114.021C440.936 114.067 443.365 121.119 442.597 122.75C441.828 124.381 441.294 117.201 439.987 117.3C439.5 117.336 439.14 117.432 440.035 121.497C440.903 124.728 441.947 127.909 443.16 131.025C445.232 142.295 454.325 178.352 468.581 171.752C476.557 168.058 479.794 151.689 479.794 151.689L472.665 151.681Z" fill="#B78876"/>
<path d="M445.174 122.615C445.237 122.62 445.3 122.611 445.36 122.589C445.453 122.561 445.533 122.5 445.587 122.418C445.64 122.335 445.662 122.237 445.65 122.139C445.632 121.655 445.557 120.95 445.445 120.038C445.266 118.937 445.148 117.828 445.09 116.714C445.08 116.061 445.096 115.359 445.133 114.615C445.142 114.239 445.18 113.863 445.246 113.492C445.306 113.139 445.541 112.735 445.811 112.783L445.841 112.789H445.855C446.13 112.776 446.345 112.992 446.433 113.323C446.526 113.662 446.56 114.015 446.534 114.366V114.391C446.698 116.575 446.974 118.749 447.361 120.904C447.424 121.195 447.488 121.489 447.578 121.784C447.623 121.936 447.677 122.085 447.738 122.231C447.775 122.313 447.819 122.392 447.87 122.465C447.904 122.523 447.951 122.571 448.007 122.606C448.063 122.642 448.127 122.664 448.193 122.67C448.305 122.656 448.41 122.611 448.497 122.538C448.583 122.465 448.647 122.369 448.68 122.26C448.745 122.106 448.793 121.945 448.824 121.78C448.887 121.466 448.928 121.148 448.949 120.829C449.02 119.529 449.003 118.226 448.897 116.929C448.801 116.282 448.775 115.627 448.819 114.975C448.847 114.691 448.983 114.43 449.2 114.247C449.249 114.217 449.305 114.198 449.362 114.191C449.419 114.183 449.477 114.188 449.533 114.204C449.597 114.222 449.659 114.249 449.717 114.282C449.755 114.312 449.785 114.352 449.802 114.398C450.048 115.03 450.228 115.687 450.338 116.358C450.475 117.049 450.594 117.752 450.703 118.464C450.812 119.176 450.912 119.895 450.996 120.621C451.06 121.368 451.179 122.109 451.353 122.839C451.44 123.215 451.557 123.583 451.702 123.941C451.778 124.141 451.885 124.327 452.02 124.492C452.074 124.562 452.145 124.616 452.228 124.646C452.31 124.676 452.399 124.682 452.484 124.662C452.562 124.635 452.631 124.589 452.686 124.528C452.742 124.467 452.781 124.393 452.801 124.312C452.89 123.914 452.916 123.505 452.878 123.099C452.862 122.709 452.83 122.33 452.801 121.947C452.746 121.29 452.683 120.64 452.661 119.997C452.647 119.684 452.655 119.372 452.685 119.061C452.697 118.921 452.728 118.784 452.778 118.653C452.796 118.61 452.823 118.571 452.856 118.537C452.868 118.525 452.876 118.53 452.886 118.518L452.986 118.489C453.499 118.275 453.67 118.995 453.806 119.575C453.925 120.18 454 120.805 454.121 121.421C454.325 122.649 454.585 123.87 454.721 125.044C454.811 125.602 454.788 126.173 454.653 126.722C454.47 127.287 454.289 127.844 454.111 128.396L454.095 128.445L454.107 128.498C455.015 132.329 456.171 136.097 457.567 139.776C458.792 143.104 460.015 145.981 461.096 148.333C462.177 150.686 463.139 152.501 463.808 153.739L464.612 155.133C464.698 155.297 464.798 155.454 464.91 155.601C464.846 155.427 464.766 155.259 464.673 155.098C464.489 154.746 464.241 154.272 463.927 153.673C463.299 152.417 462.371 150.589 461.329 148.225C460.287 145.861 459.092 142.982 457.896 139.653C456.534 135.982 455.404 132.228 454.513 128.413L454.508 128.515L455.049 126.864C455.209 126.256 455.242 125.62 455.145 124.998C455.006 123.778 454.753 122.593 454.551 121.358C454.432 120.748 454.359 120.122 454.234 119.486C454.174 119.151 454.068 118.827 453.919 118.521C453.828 118.332 453.678 118.18 453.492 118.087C453.297 118.012 453.082 118.003 452.882 118.062L452.752 118.1C452.689 118.124 452.629 118.158 452.576 118.2C452.491 118.276 452.424 118.371 452.381 118.477C452.313 118.648 452.269 118.827 452.252 119.01C452.219 119.344 452.21 119.68 452.225 120.016C452.248 120.677 452.31 121.332 452.366 121.987C452.398 122.368 452.429 122.746 452.443 123.12C452.474 123.471 452.455 123.824 452.386 124.169C452.367 124.251 452.328 124.235 452.372 124.275C452.368 124.249 452.378 124.315 452.376 124.304V124.296C452.374 124.287 452.374 124.278 452.376 124.269C452.38 124.262 452.397 124.235 452.387 124.233C452.368 124.223 452.352 124.208 452.341 124.19C452.242 124.061 452.162 123.919 452.104 123.767C451.969 123.431 451.859 123.085 451.776 122.732C451.607 122.021 451.49 121.298 451.427 120.569C451.341 119.835 451.239 119.112 451.128 118.396C451.017 117.68 450.896 116.972 450.754 116.273C450.636 115.558 450.439 114.86 450.167 114.189C450.111 114.078 450.028 113.984 449.925 113.916C449.834 113.862 449.737 113.821 449.636 113.793C449.527 113.763 449.412 113.756 449.3 113.772C449.188 113.787 449.08 113.826 448.983 113.884C448.823 114.005 448.691 114.157 448.592 114.331C448.494 114.506 448.432 114.699 448.411 114.898C448.356 115.252 448.351 115.612 448.398 115.967C448.437 116.3 448.468 116.627 448.495 116.956C448.604 118.234 448.627 119.517 448.564 120.798C448.546 121.1 448.509 121.401 448.452 121.698C448.427 121.837 448.388 121.972 448.335 122.103C448.315 122.156 448.286 122.205 448.25 122.248C448.222 122.313 448.198 122.234 448.2 122.339C448.24 122.261 448.2 122.304 448.171 122.237C448.136 122.185 448.105 122.131 448.079 122.074C448.024 121.944 447.975 121.811 447.933 121.675C447.847 121.398 447.779 121.111 447.719 120.827C447.32 118.689 447.029 116.532 446.845 114.365V114.39C446.871 113.999 446.828 113.606 446.719 113.23C446.665 113.033 446.56 112.854 446.417 112.711C446.261 112.567 446.055 112.491 445.844 112.5L445.886 112.505C445.756 112.486 445.623 112.507 445.505 112.564C445.386 112.621 445.287 112.713 445.22 112.827C445.102 113.011 445.021 113.217 444.982 113.433C444.916 113.819 444.882 114.211 444.879 114.603C444.851 115.353 444.845 116.059 444.866 116.719C444.942 117.84 445.084 118.955 445.293 120.058C445.428 120.965 445.525 121.668 445.572 122.142C445.586 122.226 445.572 122.313 445.531 122.387C445.49 122.461 445.424 122.519 445.346 122.55C445.236 122.602 445.172 122.609 445.174 122.615Z" fill="#A36957"/>
<path d="M394.811 162.42C393.302 162.387 391.794 162.561 390.331 162.938C386.338 163.998 379.444 168.212 379.158 173.418H384.165C384.165 173.418 381.361 179.439 382.185 178.878C384.323 177.431 388.579 173.069 388.579 173.069L394.811 162.42Z" fill="#B78876"/>
<path d="M463.116 71.7939C463.006 71.8033 462.551 67.6279 462.101 62.4674C461.651 57.307 461.376 53.1152 461.488 53.1074C461.599 53.0996 462.052 57.2726 462.502 62.4347C462.952 67.5967 463.226 71.7838 463.116 71.7939Z" fill="#263238"/>
<path d="M485.084 53.36C485.175 53.4248 481.792 58.3778 477.529 64.4212C473.265 70.4646 469.735 75.3123 469.641 75.2468C469.546 75.1813 472.933 70.2306 477.198 64.1856C481.463 58.1406 484.994 53.2953 485.084 53.36Z" fill="#263238"/>
<path d="M494.212 75.8078C494.234 75.917 490.286 76.8288 485.396 77.8428C480.505 78.8568 476.519 79.59 476.496 79.4808C476.474 79.3716 480.422 78.4598 485.312 77.4458C490.203 76.4318 494.189 75.6978 494.212 75.8078Z" fill="#263238"/>
<path d="M231.194 182.946L203.85 324.749L200.271 343.313L382.826 342.405C391.019 342.365 398.279 335.027 400.916 324.126L433.287 190.249C435.288 181.974 430.897 173.367 424.678 173.373L239.911 173.569C235.828 173.573 232.262 177.412 231.194 182.946Z" fill="#E84E1B"/>
<g opacity="0.5">
<path opacity="0.5" d="M231.194 182.946L203.85 324.749L200.271 343.313L382.826 342.405C391.019 342.365 398.279 335.027 400.916 324.126L433.287 190.249C435.288 181.974 430.897 173.367 424.678 173.373L239.911 173.569C235.828 173.573 232.262 177.412 231.194 182.946Z" fill="black"/>
</g>
<path d="M365.313 315.141L345.984 158.043C345.192 151.606 340.106 146.805 334.106 146.824L291.722 146.964C290.147 146.979 288.592 147.319 287.152 147.963C285.713 148.607 284.419 149.541 283.35 150.708L263.224 172.286L145.348 172.91C138.144 172.947 132.61 179.822 133.565 187.547L151.511 332.746C152.306 339.173 157.379 343.969 163.374 343.957L368.807 343.547C391.688 344.025 393.872 337.21 393.872 337.21C367.65 343.069 365.315 315.159 365.313 315.141Z" fill="#E84E1B"/>
<g opacity="0.5">
<path opacity="0.5" d="M276.731 283.7L269.802 291.205L216.442 242.786L223.371 235.281L276.731 283.7Z" fill="white"/>
<path opacity="0.5" d="M266.898 233.617L274.554 240.565L226.271 292.869L218.615 285.921L266.898 233.617Z" fill="white"/>
</g>
<path d="M394.648 80.9523C394.397 80.8443 394.183 80.6672 394.028 80.4414C393.873 80.2156 393.785 79.9504 393.774 79.6762L393.464 72.4347C393.454 72.2098 393.496 71.9856 393.586 71.7798C393.677 71.574 393.813 71.3921 393.985 71.2485C394.157 71.1048 394.36 71.0034 394.577 70.952C394.794 70.9007 395.02 70.9009 395.238 70.9527C395.836 71.0831 396.454 71.0887 397.055 70.969C397.655 70.8494 398.225 70.607 398.729 70.2569C399.194 69.96 399.594 69.5702 399.905 69.1116C400.215 68.653 400.429 68.1352 400.534 67.5901C400.605 67.036 400.565 66.4731 400.416 65.935C400.267 65.3969 400.012 64.8945 399.666 64.4576C399.305 63.9608 398.85 63.5414 398.327 63.2238C397.804 62.9061 397.223 62.6966 396.619 62.6075C395.398 62.5396 394.19 62.8912 393.193 63.6047C392.196 64.3183 391.468 65.3517 391.128 66.5363C391.083 66.7255 391 66.9036 390.886 67.0602C390.771 67.2167 390.626 67.3484 390.46 67.4475C390.294 67.5467 390.11 67.6112 389.919 67.6373C389.728 67.6634 389.533 67.6506 389.347 67.5995C389.161 67.5485 388.987 67.4603 388.835 67.3402C388.683 67.2201 388.556 67.0705 388.463 66.9002C388.369 66.73 388.311 66.5425 388.29 66.349C388.27 66.1555 388.288 65.9598 388.344 65.7735C388.87 63.9198 390.013 62.3057 391.581 61.2027C393.149 60.0998 395.046 59.5756 396.952 59.7183C397.945 59.8503 398.901 60.183 399.763 60.6964C400.626 61.2099 401.377 61.8935 401.971 62.7065C402.551 63.4575 402.976 64.3188 403.219 65.239C403.462 66.1591 403.519 67.1193 403.385 68.062C403.217 69.0013 402.859 69.8958 402.334 70.6902C401.809 71.4847 401.128 72.1623 400.334 72.6812C399.173 73.4677 397.818 73.9138 396.42 73.9697L396.66 79.5514C396.67 79.7975 396.619 80.0424 396.511 80.2632C396.402 80.4839 396.24 80.6732 396.039 80.8135C395.838 80.9537 395.605 81.0403 395.362 81.0651C395.119 81.0899 394.874 81.0522 394.649 80.9554L394.648 80.9523Z" fill="#E84E1B"/>
<path d="M396.763 83.9096C396.779 84.1444 396.725 84.3788 396.609 84.583C396.493 84.7872 396.32 84.9522 396.111 85.0569C395.902 85.1617 395.666 85.2016 395.435 85.1716C395.203 85.1416 394.986 85.043 394.81 84.8883C394.634 84.7337 394.508 84.5298 394.446 84.3026C394.385 84.0754 394.392 83.8351 394.467 83.6119C394.541 83.3888 394.679 83.1929 394.864 83.049C395.049 82.9051 395.272 82.8197 395.504 82.8035C395.817 82.7821 396.125 82.8866 396.36 83.0939C396.596 83.3013 396.741 83.5947 396.763 83.9096Z" fill="#E84E1B"/>
<path d="M369.797 70.7408C369.833 70.5846 369.857 70.4258 369.867 70.2658C369.904 69.9265 369.954 69.4647 370.022 68.8712C370.095 68.1161 370.22 67.3671 370.396 66.6294C370.498 66.1926 370.55 65.7067 370.705 65.2153C370.86 64.7239 371.014 64.1958 371.185 63.6405C372.073 60.9755 373.371 58.4678 375.031 56.2094C377.784 52.5334 381.451 49.656 385.661 47.8683C389.87 46.0806 394.473 45.4461 399.004 46.0289C399.598 46.0858 400.181 46.2457 400.778 46.3502C401.38 46.4492 401.975 46.594 402.556 46.7831C405.01 47.4692 407.343 48.536 409.472 49.9452C414.182 53.028 417.77 57.5727 419.694 62.8932C420.721 65.7443 421.235 68.7574 421.211 71.7907C421.245 74.9188 420.696 78.0254 419.594 80.9495L419.245 81.8402L419.198 81.958L419.246 82.068C421.186 86.574 423.088 90.9927 424.931 95.2757L425.256 94.9029L413.675 90.4148L413.531 90.3594L413.419 90.4686C410.351 93.4694 406.593 95.6574 402.482 96.8373C398.971 97.8148 395.293 98.0288 391.694 97.4652C388.094 96.9017 384.654 95.5734 381.602 93.5683C379.101 91.9129 376.897 89.8424 375.081 87.4445C372.452 83.9459 370.749 79.8299 370.132 75.484C370.04 74.7227 369.958 74.0467 369.888 73.456C369.873 72.8726 369.861 72.3757 369.85 71.9654C369.837 71.5824 369.827 71.2806 369.82 71.052C369.822 70.9475 369.813 70.8429 369.795 70.74C369.779 70.8433 369.773 70.9477 369.776 71.052C369.776 71.2806 369.769 71.5824 369.765 71.9678C369.765 72.3801 369.765 72.8796 369.765 73.4661C369.824 74.0621 369.892 74.744 369.969 75.5121C370.226 77.388 370.669 79.2333 371.29 81.0204C372.179 83.3779 373.371 85.6071 374.836 87.6504C376.657 90.0965 378.878 92.2117 381.403 93.9053C384.493 95.9608 387.982 97.3284 391.637 97.917C395.292 98.5055 399.03 98.3015 402.6 97.3185C406.792 96.1295 410.625 93.9101 413.757 90.8594L413.501 90.9132L425.077 95.42L425.66 95.647L425.402 95.0472L419.724 81.8363V82.0641L420.082 81.1538C421.208 78.1656 421.768 74.9906 421.733 71.7938C421.755 68.6933 421.228 65.6138 420.175 62.7006C418.207 57.2755 414.539 52.6455 409.727 49.5123C407.556 48.084 405.177 47.0051 402.677 46.3143C402.085 46.1248 401.479 45.9799 400.866 45.8807C400.259 45.7761 399.664 45.6162 399.062 45.5601C393.5 44.8012 387.845 45.9161 382.976 48.7316C379.769 50.5516 376.982 53.037 374.797 56.0238C373.138 58.3203 371.852 60.8695 370.99 63.575C370.827 64.1381 370.673 64.6701 370.526 65.1708C370.371 65.6677 370.327 66.1591 370.233 66.6006C370.069 67.3454 369.96 68.1015 369.907 68.8626C369.864 69.4593 369.83 69.9257 369.806 70.2666C369.792 70.4242 369.789 70.5827 369.797 70.7408Z" fill="#263238"/>
</svg>
