<svg width="31" height="31" viewBox="0 0 31 31" fill="none" xmlns="http://www.w3.org/2000/svg">
<g clip-path="url(#clip0_274_921)">
<path d="M15.5 30.999C24.0604 30.999 31 24.0594 31 15.499C31 6.93861 24.0604 -0.000976562 15.5 -0.000976562C6.93959 -0.000976562 0 6.93861 0 15.499C0 24.0594 6.93959 30.999 15.5 30.999Z" fill="#0375A7"/>
<path d="M24.7612 16.7473V23.1376H21.0562V17.1756C21.0562 15.6786 20.5213 14.6563 19.1798 14.6563C18.1561 14.6563 17.548 15.3445 17.2794 16.011C17.1819 16.2491 17.1568 16.5799 17.1568 16.9139V23.1374H13.4516C13.4516 23.1374 13.5013 13.0396 13.4516 11.9944H17.157V13.5734C17.1496 13.5859 17.1391 13.598 17.1325 13.6099H17.157V13.5734C17.6494 12.8158 18.5275 11.7327 20.4962 11.7327C22.9337 11.7327 24.7612 13.3253 24.7612 16.7473ZM9.57558 6.62305C8.30819 6.62305 7.479 7.45499 7.479 8.54804C7.479 9.61789 8.28415 10.4739 9.52696 10.4739H9.55099C10.8433 10.4739 11.6467 9.61789 11.6467 8.54804C11.6222 7.45499 10.8433 6.62305 9.57558 6.62305ZM7.69922 23.1376H11.403V11.9944H7.69922V23.1376Z" fill="#F1F2F2"/>
</g>
<defs>
<clipPath id="clip0_274_921">
<rect width="31" height="31" fill="white"/>
</clipPath>
</defs>
</svg>
