<svg width="16" height="17" viewBox="0 0 16 17" fill="none" xmlns="http://www.w3.org/2000/svg">
<path d="M14.75 0.574219H1.21484C0.617188 0.574219 0.125 1.10156 0.125 1.73438V15.1992C0.125 15.832 0.617188 16.3242 1.21484 16.3242H14.75C15.3477 16.3242 15.875 15.832 15.875 15.1992V1.73438C15.875 1.10156 15.3477 0.574219 14.75 0.574219ZM4.87109 14.0742H2.55078V6.58594H4.87109V14.0742ZM3.71094 5.53125C2.9375 5.53125 2.33984 4.93359 2.33984 4.19531C2.33984 3.45703 2.9375 2.82422 3.71094 2.82422C4.44922 2.82422 5.04688 3.45703 5.04688 4.19531C5.04688 4.93359 4.44922 5.53125 3.71094 5.53125ZM13.625 14.0742H11.2695V10.418C11.2695 9.57422 11.2695 8.44922 10.0742 8.44922C8.84375 8.44922 8.66797 9.39844 8.66797 10.3828V14.0742H6.34766V6.58594H8.5625V7.60547H8.59766C8.91406 7.00781 9.6875 6.375 10.8125 6.375C13.168 6.375 13.625 7.95703 13.625 9.96094V14.0742Z" fill="#5A7184"/>
</svg>
