<svg width="585" height="308" viewBox="0 0 585 308" fill="none" xmlns="http://www.w3.org/2000/svg">
<path d="M360.138 393.074C360.138 393.074 340.35 389.608 328.156 358.413C313.2 320.054 321.483 274.069 331.607 261.591C339.43 252.117 359.218 234.324 393.04 229.702C427.093 224.85 454.244 231.551 485.536 219.535C516.827 207.519 521.659 198.044 521.659 198.044C521.659 198.044 522.58 197.12 521.659 196.196C520.969 195.503 519.358 197.12 518.438 197.582C517.518 198.044 499.341 210.523 476.562 215.144C453.784 219.766 429.624 217.224 411.447 211.216C410.527 211.216 409.147 209.598 411.677 207.981C414.439 206.363 436.297 185.566 448.491 164.769C460.456 143.972 464.137 130.339 465.288 126.41C465.748 125.024 465.518 123.637 464.368 123.175C463.217 122.713 462.067 123.406 461.376 125.255C460.686 126.872 449.642 154.833 431.235 173.781C412.828 192.73 396.722 204.284 367.271 216.993C337.819 229.702 326.315 234.555 326.315 234.555C326.315 234.555 318.492 238.483 313.2 234.093C307.908 229.702 310.439 216.3 312.28 210.985C313.89 205.439 320.333 187.184 336.209 167.08C352.085 146.976 364.51 137.502 371.642 121.095C378.775 104.689 381.306 91.7485 377.164 70.9515C376.474 68.6407 375.554 67.2543 374.173 67.4853C372.793 67.7164 372.793 70.2583 373.253 73.0312C373.483 75.8041 374.864 89.6688 368.651 105.382C362.439 121.095 348.634 136.347 336.209 145.821C323.784 155.295 299.625 186.028 292.032 201.973C291.112 203.821 290.652 204.977 289.271 204.746C287.891 204.746 283.519 198.969 279.377 194.116C275.236 189.263 263.041 177.016 256.599 164.307C250.156 151.598 243.944 130.801 247.165 102.609C249.696 79.5014 252.687 68.4096 254.068 64.7124C254.528 63.3259 255.908 59.8598 253.607 58.9354C250.846 57.78 249.006 62.6327 248.085 64.4813C245.094 70.9515 241.873 79.0392 238.192 91.0553C233.82 105.382 227.147 136.809 242.103 171.239C253.377 195.04 267.643 209.829 267.413 217.455C267.183 225.081 254.988 221.846 254.988 221.846C254.988 221.846 226.227 211.216 209.431 203.821C192.634 196.427 161.112 179.327 143.626 153.446C130.741 135.422 128.9 131.263 128.9 131.263C128.9 131.263 127.52 128.952 125.909 129.645C124.298 130.339 124.298 131.956 124.989 133.343C125.679 134.729 136.033 157.606 150.528 173.55C165.024 189.495 185.502 206.594 185.502 206.594C185.502 206.594 187.572 207.981 187.572 208.905C187.572 209.829 183.891 210.292 179.749 211.216C175.378 212.14 153.98 216.069 136.493 214.22C119.006 212.602 97.8383 207.519 84.0331 199.893C70.4579 192.268 65.1659 189.032 65.1659 189.032C65.1659 189.032 63.5553 188.339 63.0952 189.032C62.4049 189.957 63.5553 190.65 64.9359 192.036C66.3164 193.192 90.4755 213.989 125.449 221.614C160.652 229.471 187.112 224.156 191.484 223.463C195.856 222.77 220.245 217.455 252.917 242.874C285.59 268.292 280.298 299.719 279.837 303.647C278.917 308.038 264.192 295.559 260.74 292.555C260.05 292.093 258.9 291.169 257.749 292.324C256.599 293.48 257.979 294.635 258.669 295.328C263.271 299.257 268.103 302.492 272.245 315.432C276.386 328.372 275.696 337.847 267.413 358.413C259.13 378.979 250.156 392.381 241.183 392.381H360.138V393.074Z" fill="white"/>
<path d="M199.996 248.884C194.474 242.414 192.633 235.019 196.085 232.246C199.306 229.474 206.438 232.246 211.961 238.717C217.483 245.187 217.943 253.737 215.872 255.354C213.801 257.203 205.518 255.123 199.996 248.884Z" fill="white"/>
<path d="M234.739 204.512C226.226 204.281 219.553 200.815 219.553 196.424C219.553 192.034 226.456 188.799 234.969 188.799C243.482 189.03 250.155 194.345 250.155 196.887C249.925 199.659 243.022 204.512 234.739 204.512Z" fill="white"/>
<path d="M297.324 42.7589C289.961 46.9183 282.368 47.1494 280.297 43.221C278.226 39.5238 282.368 33.0536 289.731 28.8942C297.094 24.7348 305.607 26.1212 306.757 28.432C308.138 30.9739 304.687 38.8305 297.324 42.7589Z" fill="white"/>
<path d="M345.642 28.6596C351.625 34.4365 354.156 41.831 351.165 44.8351C348.173 48.0702 340.811 45.7594 334.828 39.9824C328.846 34.2055 327.466 25.6556 329.306 23.807C331.147 21.7272 339.66 22.6516 345.642 28.6596Z" fill="white"/>
<path d="M400.864 38.5948C395.342 44.8339 387.979 47.6068 384.758 44.6028C381.537 41.5988 383.607 34.2043 389.129 27.9652C394.651 21.7261 403.165 20.1085 405.235 21.9572C407.306 23.8058 406.386 32.3557 400.864 38.5948Z" fill="white"/>
<path d="M547.198 165.228C541.676 171.467 534.313 174.24 531.092 171.236C527.871 168.232 529.942 160.837 535.464 154.598C540.986 148.359 549.499 146.741 551.57 148.59C553.641 150.439 552.951 158.989 547.198 165.228Z" fill="white"/>
<path d="M461.837 80.1938C463.217 88.0505 460.686 94.9828 456.544 95.676C452.403 96.3693 447.801 90.5923 446.421 82.7357C445.04 74.879 449.412 67.7156 451.713 67.2534C454.474 66.7913 460.456 72.3372 461.837 80.1938Z" fill="white"/>
<path d="M494.048 117.393C487.836 121.784 480.703 122.246 478.172 118.78C475.641 115.313 478.862 108.843 485.305 104.453C491.517 100.062 499.8 100.987 501.181 103.066C502.561 105.377 500.26 113.003 494.048 117.393Z" fill="white"/>
<path d="M524.418 147.664C517.055 149.743 510.153 147.895 509.002 143.735C507.852 139.576 512.914 134.492 520.277 132.644C527.639 130.564 535.002 134.261 535.692 136.572C536.383 139.114 531.781 145.584 524.418 147.664Z" fill="white"/>
<path d="M573.658 199.89C566.295 201.97 559.392 200.121 558.242 195.962C557.091 191.803 562.153 186.719 569.516 184.87C576.879 182.791 584.242 186.488 584.932 188.799C585.622 191.34 581.02 197.811 573.658 199.89Z" fill="white"/>
<path d="M447.112 205.428C440.899 209.819 433.767 210.281 431.236 206.815C428.705 203.349 431.926 196.878 438.368 192.488C444.581 188.097 452.864 189.022 454.244 191.101C455.625 193.412 453.324 201.038 447.112 205.428Z" fill="white"/>
<path d="M419.041 247.721C421.112 240.326 426.174 235.243 430.316 236.398C434.457 237.554 436.068 244.486 433.997 251.88C431.926 259.275 425.024 263.896 422.723 263.203C420.192 262.51 416.971 255.115 419.041 247.721Z" fill="white"/>
<path d="M315.039 85.9699C310.898 93.3644 304.455 97.5239 300.544 95.2131C296.863 93.1334 297.323 85.2767 301.464 78.1133C305.606 70.7188 313.659 67.4837 315.96 68.8702C318.261 70.2566 319.181 78.5754 315.039 85.9699Z" fill="white"/>
<path d="M283.978 68.3987C275.695 70.0162 268.332 67.9365 267.642 63.7771C266.722 59.6177 272.704 54.7651 280.987 53.1475C289.27 51.53 296.863 55.4583 297.553 57.7691C297.783 60.542 292.261 66.7811 283.978 68.3987Z" fill="white"/>
<path d="M173.535 253.269C172.615 243.333 175.606 235.014 179.748 234.783C184.119 234.321 188.261 242.178 188.951 252.114C189.871 262.05 185.27 270.6 182.739 270.6C180.208 270.831 174.456 263.206 173.535 253.269Z" fill="white"/>
<path d="M156.279 205.203C148.917 208.9 141.784 209.363 140.173 206.128C138.563 202.892 143.164 197.347 150.527 193.649C157.89 189.952 165.713 190.876 166.633 192.725C167.554 194.574 163.642 201.506 156.279 205.203Z" fill="white"/>
<path d="M146.847 250.033C149.839 240.559 155.591 233.858 159.732 235.244C163.874 236.631 164.794 245.181 161.803 254.655C158.812 264.129 151.449 270.137 148.918 269.444C146.387 268.751 143.856 259.739 146.847 250.033Z" fill="white"/>
<path d="M136.031 188.106C134.191 197.811 129.129 205.205 124.987 204.281C120.846 203.357 118.775 194.807 120.846 185.102C122.686 175.396 129.589 168.464 131.89 168.926C134.421 169.388 137.872 178.4 136.031 188.106Z" fill="white"/>
<path d="M151.908 113.931C147.076 122.481 140.174 127.796 136.262 125.716C132.581 123.636 133.501 114.855 138.333 106.306C143.165 97.7557 151.678 93.1341 153.979 94.5206C156.28 95.9071 156.74 105.381 151.908 113.931Z" fill="white"/>
<path d="M175.376 81.8082C182.968 88.0473 186.88 95.904 184.119 99.3702C181.358 102.605 173.075 100.294 165.252 94.0553C157.659 87.8162 154.898 78.5731 156.508 76.4934C158.349 74.4137 167.783 75.5691 175.376 81.8082Z" fill="white"/>
<path d="M167.555 134.036C163.643 143.048 157.201 149.056 153.289 147.439C149.378 145.59 149.378 136.809 153.289 127.797C157.201 118.785 165.484 113.47 167.555 114.395C170.086 115.55 171.466 125.024 167.555 134.036Z" fill="white"/>
<path d="M184.122 153.44C180.901 162.914 174.918 169.384 171.007 167.998C166.865 166.611 166.175 157.83 169.396 148.356C172.618 138.882 180.21 133.105 182.511 133.798C185.042 134.954 187.343 144.197 184.122 153.44Z" fill="white"/>
<path d="M122.688 242.867C128.901 235.01 136.494 230.85 139.945 233.623C143.396 236.396 141.095 244.715 134.883 252.572C128.671 260.428 119.697 263.433 117.627 261.815C115.556 260.197 116.476 250.723 122.688 242.867Z" fill="white"/>
<path d="M107.961 181.406C109.801 191.112 107.961 199.661 103.819 200.586C99.6776 201.51 94.6157 194.116 92.775 184.41C90.9343 174.705 94.6157 165.693 96.9165 165.231C99.6776 164.769 106.12 171.701 107.961 181.406Z" fill="white"/>
<path d="M141.095 81.3386C139.484 91.0439 134.882 98.6695 130.511 97.9762C126.369 97.283 124.068 88.7331 125.679 79.0278C127.289 69.3225 133.732 62.1591 136.263 62.3902C138.794 62.8524 142.475 71.6333 141.095 81.3386Z" fill="white"/>
<path d="M191.023 57.3141C198.616 63.5532 202.757 71.4098 199.996 74.6449C197.235 78.1111 188.952 75.5693 181.129 69.3301C173.536 63.091 170.545 53.8479 172.156 51.9993C173.996 49.9196 183.43 51.075 191.023 57.3141Z" fill="white"/>
<path d="M94.6156 242.637C96.2262 232.932 101.058 225.537 105.2 226.231C109.341 226.924 111.642 235.474 110.031 245.179C108.421 254.884 101.748 262.048 99.4475 261.586C96.6864 261.123 93.005 252.342 94.6156 242.637Z" fill="white"/>
<path d="M51.8199 164.765C58.4925 172.16 61.2535 180.478 58.0323 183.251C54.8111 186.255 46.758 182.558 40.3155 175.164C33.643 167.769 32.2625 158.295 34.1032 156.677C36.174 155.06 45.1474 157.602 51.8199 164.765Z" fill="white"/>
<path d="M72.0676 229.703C76.8994 221.153 83.8021 215.838 87.7135 217.918C91.3949 219.997 90.4746 228.778 85.6428 237.328C80.8109 245.878 72.2977 250.5 69.9968 249.113C67.6959 247.727 67.2358 238.253 72.0676 229.703Z" fill="white"/>
<path d="M84.953 167.77C84.4928 177.706 80.5814 185.563 76.4398 185.332C72.0681 185.101 69.077 177.013 69.5372 167.077C69.9973 157.14 75.7495 149.284 78.0504 149.515C80.8114 149.515 85.4132 157.834 84.953 167.77Z" fill="white"/>
<path d="M50.6699 216.522C56.8822 208.897 64.7052 204.737 68.1565 207.51C71.3777 210.283 69.0769 218.602 62.8645 226.459C56.6521 234.084 47.4486 237.088 45.3779 235.471C43.3071 233.622 44.4575 224.148 50.6699 216.522Z" fill="white"/>
<path d="M58.9525 137.266C63.7843 145.815 64.7047 154.596 61.0233 156.676C57.3419 158.756 50.2092 153.672 45.3773 144.891C40.5455 136.341 41.0057 126.636 43.3065 125.481C45.8375 124.094 54.1206 128.485 58.9525 137.266Z" fill="white"/>
<path d="M34.104 196.652C43.0774 192.493 51.8207 192.262 53.6614 196.19C55.5021 200.119 49.75 206.589 40.7765 210.979C31.8031 215.139 22.3695 213.752 21.2191 211.441C20.0687 208.668 25.1306 200.812 34.104 196.652Z" fill="white"/>
<path d="M120.847 100.76C125.679 109.541 126.369 118.322 122.688 120.401C119.006 122.481 111.874 117.166 107.272 108.385C102.44 99.6042 103.36 90.13 105.431 88.7436C107.732 87.5882 116.015 92.2097 120.847 100.76Z" fill="white"/>
<path d="M111.412 143.511C121.306 144.204 129.129 148.363 128.669 152.523C128.439 156.913 120.155 159.686 110.262 158.993C100.368 158.3 92.7749 152.523 93.005 149.981C93.2351 147.208 101.518 142.817 111.412 143.511Z" fill="white"/>
<path d="M219.325 184.411C209.661 186.952 201.148 185.566 199.998 181.406C198.847 177.247 205.75 171.701 215.414 169.159C225.077 166.617 234.051 169.853 234.741 172.163C235.431 175.167 228.989 182.1 219.325 184.411Z" fill="white"/>
<path d="M208.969 113.467C218.633 115.546 225.765 120.63 224.845 124.79C223.925 128.949 215.412 130.798 205.748 128.718C196.084 126.638 189.412 119.706 189.872 117.395C190.562 114.853 199.305 111.387 208.969 113.467Z" fill="white"/>
<path d="M225.995 62.8583C233.128 69.7907 236.579 77.8784 233.588 80.8824C230.597 84.1175 222.314 81.1135 215.181 74.1811C208.048 67.2488 205.748 58.0057 207.588 56.1571C209.429 54.0774 218.632 55.926 225.995 62.8583Z" fill="white"/>
<path d="M274.774 94.7468C265.34 97.7508 256.597 97.0576 255.216 92.8982C253.836 88.7388 260.508 82.9618 269.942 79.9578C279.375 76.9538 288.579 79.4956 289.499 81.8064C290.42 84.3483 284.207 91.5117 274.774 94.7468Z" fill="white"/>
<path d="M275.695 118.091C266.262 121.095 257.518 120.401 256.138 116.242C254.757 112.082 261.43 106.306 270.863 103.302C280.297 100.298 289.5 102.839 290.421 105.15C291.111 107.692 285.129 114.855 275.695 118.091Z" fill="white"/>
<path d="M319.871 122.937C327.464 129.407 331.145 137.264 328.384 140.499C325.623 143.734 317.11 141.192 309.747 134.722C302.155 128.252 299.624 119.009 301.234 117.16C303.075 115.08 312.508 116.467 319.871 122.937Z" fill="white"/>
<path d="M339.888 103.297C349.092 106.994 355.304 113.233 353.694 117.162C352.083 121.09 343.34 121.552 334.136 117.855C324.933 114.158 319.411 106.301 320.331 103.99C321.251 101.448 330.685 99.8307 339.888 103.297Z" fill="white"/>
<path d="M346.333 79.2709C355.996 81.3506 363.129 86.6654 362.209 90.8248C361.288 94.9842 352.775 96.8329 343.111 94.5221C333.448 92.4424 326.775 85.51 327.235 82.9682C327.695 80.1952 336.669 76.9601 346.333 79.2709Z" fill="white"/>
<path d="M347.943 54.3127C357.147 57.7789 363.359 64.018 361.978 67.9464C360.368 71.8747 351.624 72.3368 342.421 68.8707C333.217 65.4045 327.465 57.5478 328.386 55.2371C329.536 52.6952 338.74 50.8466 347.943 54.3127Z" fill="white"/>
<path d="M377.164 34.6641C379.005 44.3694 377.164 52.9192 373.022 53.8436C368.881 54.7679 363.819 47.3734 361.978 37.6681C360.137 27.9628 363.819 18.9508 366.12 18.4886C368.881 18.0264 375.323 24.9588 377.164 34.6641Z" fill="white"/>
<path d="M406.154 64.0198C398.331 70.0279 389.818 72.1076 387.057 68.6414C384.526 65.1752 388.898 57.5497 396.721 51.5416C404.544 45.5336 414.207 45.0714 415.818 46.9201C417.429 48.9998 413.977 58.0118 406.154 64.0198Z" fill="white"/>
<path d="M407.077 88.5104C397.643 91.0522 388.9 89.8969 387.75 85.7375C386.599 81.578 393.502 76.0322 402.935 73.4903C412.369 70.9485 421.573 73.9525 422.263 76.2633C423.183 79.0362 416.741 85.9685 407.077 88.5104Z" fill="white"/>
<path d="M403.163 114.617C393.269 114.155 385.446 110.457 385.446 106.067C385.676 101.676 393.729 98.4412 403.623 98.9033C413.517 99.3655 421.34 104.911 421.34 107.453C421.11 109.995 413.057 114.848 403.163 114.617Z" fill="white"/>
<path d="M393.04 138.651C383.377 140.73 374.863 138.882 373.943 134.722C373.023 130.563 380.155 125.479 389.819 123.4C399.483 121.32 408.456 125.017 408.916 127.328C409.607 130.101 402.934 136.802 393.04 138.651Z" fill="white"/>
<path d="M373.252 164.535C363.818 167.539 355.075 166.845 353.694 162.686C352.314 158.527 358.756 152.75 368.19 149.515C377.623 146.511 386.827 148.821 387.747 151.363C388.668 153.905 382.685 161.3 373.252 164.535Z" fill="white"/>
<path d="M351.625 202.659C347.713 211.671 341.271 217.91 337.359 216.062C333.448 214.444 333.448 205.663 337.359 196.42C341.271 187.177 349.324 182.093 351.625 183.018C354.156 184.173 355.536 193.416 351.625 202.659Z" fill="white"/>
<path d="M380.155 190.873C379.234 200.809 375.093 208.435 370.721 208.204C366.349 207.742 363.588 199.423 364.509 189.486C365.429 179.55 371.411 171.924 373.942 172.156C376.703 172.618 381.075 180.936 380.155 190.873Z" fill="white"/>
<path d="M404.084 172.857C405.464 182.563 403.393 191.113 399.022 191.806C394.65 192.499 390.048 185.104 388.668 175.168C387.287 165.232 391.199 156.682 393.73 156.22C396.261 155.758 402.473 163.152 404.084 172.857Z" fill="white"/>
<path d="M422.72 153.671C426.862 162.683 426.862 171.464 422.95 173.313C419.039 175.161 412.596 169.153 408.455 160.141C404.313 151.129 405.924 141.655 408.225 140.5C410.756 139.113 418.809 144.428 422.72 153.671Z" fill="white"/>
<path d="M439.748 131.26C443.889 140.272 443.889 149.053 439.978 150.901C436.066 152.75 429.624 146.742 425.482 137.73C421.341 128.718 422.951 119.244 425.252 118.088C427.783 116.933 435.606 122.248 439.748 131.26Z" fill="white"/>
<path d="M451.253 105.148C454.014 114.622 453.093 123.403 448.952 124.558C444.81 125.714 439.058 119.012 436.297 109.538C433.536 100.064 436.297 90.8208 438.598 90.1276C441.359 89.2033 448.491 95.4424 451.253 105.148Z" fill="white"/>
<path d="M481.394 97.0558C478.403 106.53 472.651 113.231 468.74 111.845C464.598 110.458 463.678 101.908 466.669 92.4342C469.66 82.96 477.023 76.7209 479.324 77.6452C481.855 78.3385 484.156 87.5816 481.394 97.0558Z" fill="white"/>
<path d="M488.066 142.579C478.172 143.966 469.889 141.886 469.199 137.495C468.508 133.105 475.871 128.483 485.765 127.097C495.659 125.71 504.172 129.639 504.632 132.181C505.092 134.723 497.96 140.962 488.066 142.579Z" fill="white"/>
<path d="M479.322 164.768C469.428 164.075 461.605 159.916 462.065 155.525C462.296 151.135 470.579 148.362 480.472 149.055C490.366 149.748 497.959 155.756 497.729 158.298C497.499 161.071 489.216 165.462 479.322 164.768Z" fill="white"/>
<path d="M476.792 189.716C479.553 199.19 478.402 207.971 474.261 209.127C470.119 210.282 464.597 203.581 461.836 193.875C459.075 184.401 462.066 175.158 464.367 174.465C467.128 173.772 474.261 180.242 476.792 189.716Z" fill="white"/>
<path d="M500.72 183.943C502.561 193.649 500.49 202.199 496.348 203.123C492.207 203.816 487.145 196.653 485.534 186.947C483.694 177.242 487.605 168.23 489.906 167.768C492.437 167.306 498.879 174.238 500.72 183.943Z" fill="white"/>
<path d="M524.42 173.775C523.73 183.711 519.589 191.337 515.217 191.105C510.845 190.874 508.084 182.556 508.775 172.619C509.465 162.683 515.447 155.057 517.978 155.288C520.739 155.288 525.111 163.838 524.42 173.775Z" fill="white"/>
<path d="M547.428 192.029C539.145 197.344 530.402 198.73 528.101 195.264C525.8 191.567 530.632 184.404 538.915 178.858C547.198 173.312 556.862 173.543 558.242 175.623C559.623 177.933 555.711 186.483 547.428 192.029Z" fill="white"/>
<path d="M538.456 219.304C529.253 215.606 523.27 209.367 524.881 205.208C526.492 201.28 535.235 201.049 544.438 204.746C553.642 208.443 559.164 216.531 558.014 218.842C556.863 221.383 547.66 223.001 538.456 219.304Z" fill="white"/>
<path d="M520.739 236.166C513.606 229.234 510.155 221.146 513.146 218.142C516.137 215.138 524.42 218.142 531.553 224.843C538.686 231.776 540.756 241.25 539.146 242.867C537.075 244.947 527.872 243.098 520.739 236.166Z" fill="white"/>
<path d="M497.5 244.025C491.748 235.937 489.678 227.387 493.129 224.845C496.58 222.303 504.173 226.694 509.925 234.782C515.677 242.869 516.138 252.344 514.297 253.961C512.226 255.579 503.253 252.113 497.5 244.025Z" fill="white"/>
<path d="M472.19 251.19C468.968 241.716 469.429 233.166 473.57 231.548C477.712 230.162 483.694 236.632 486.915 245.875C490.136 255.35 487.836 264.593 485.535 265.517C482.774 266.441 475.411 260.433 472.19 251.19Z" fill="white"/>
<path d="M445.729 253.959C443.658 244.254 445.269 235.704 449.641 234.78C453.782 233.855 459.074 241.019 461.145 250.724C463.216 260.429 459.764 269.441 457.234 269.903C454.472 270.597 448.03 263.664 445.729 253.959Z" fill="white"/>
<path d="M278.226 144.204C268.332 144.204 260.279 140.507 260.279 136.347C260.279 131.957 268.332 128.491 278.226 128.722C288.12 128.722 296.173 134.268 296.173 136.579C296.173 139.351 288.12 144.435 278.226 144.204Z" fill="white"/>
<path d="M291.802 169.388C283.059 173.779 274.316 174.241 272.245 170.544C270.174 166.846 275.926 159.914 284.67 155.524C293.413 151.133 303.077 152.288 304.227 154.368C305.377 156.91 300.546 164.998 291.802 169.388Z" fill="white"/>
<path d="M236.579 36.9818C241.871 45.3006 243.252 54.0815 239.571 56.3923C235.889 58.7031 228.756 53.8505 223.464 45.3006C218.172 36.9818 218.403 27.2765 220.473 25.89C222.774 24.5035 231.287 28.4319 236.579 36.9818Z" fill="white"/>
<path d="M256.369 18.2613C256.139 28.1977 252.688 36.2854 248.316 36.0544C243.944 36.0544 240.723 27.9666 240.723 18.0303C240.953 8.09391 246.245 0.0061754 248.776 0.237253C251.537 0.237253 256.369 8.32499 256.369 18.2613Z" fill="white"/>
<path d="M271.322 39.7501C267.871 48.9932 261.658 55.2323 257.747 53.8458C253.835 52.2283 253.375 43.4473 256.827 34.2042C260.278 24.9611 268.101 19.1841 270.402 20.1084C273.163 21.2638 275.003 30.5069 271.322 39.7501Z" fill="white"/>
<path d="M211.962 88.2824C221.165 91.7485 227.608 97.9876 225.997 101.916C224.387 106.075 215.643 106.538 206.44 102.84C197.236 99.3741 191.484 91.5175 192.405 89.2067C193.325 86.6648 202.528 84.5851 211.962 88.2824Z" fill="white"/>
<path d="M213.802 158.063C205.749 164.071 197.235 165.92 194.704 162.454C192.173 158.988 196.545 151.362 204.368 145.354C212.421 139.346 221.855 138.884 223.465 140.964C225.306 143.274 221.855 152.055 213.802 158.063Z" fill="white"/>
<path d="M19.3779 172.621C29.0416 174.931 35.9442 180.477 34.7938 184.637C33.6433 188.796 25.1301 190.183 15.4664 187.872C5.80274 185.561 -0.63971 178.398 0.0505519 175.856C0.740814 173.083 9.71422 170.31 19.3779 172.621Z" fill="white"/>
<path d="M17.076 146.97C22.368 152.747 24.4387 159.68 21.6777 162.453C18.9167 164.995 12.2441 162.453 6.72202 156.676C1.43001 150.899 0.50966 142.811 2.12027 141.193C3.96097 139.345 11.7839 140.962 17.076 146.97Z" fill="white"/>
<path d="M67.9258 110.926C73.2178 116.702 75.2886 123.635 72.5275 126.408C69.7665 128.95 63.094 126.408 57.5719 120.631C52.2799 114.854 51.3595 106.766 52.9701 105.149C55.0409 103.3 62.6338 104.917 67.9258 110.926Z" fill="white"/>
<path d="M104.741 121.086C112.334 123.628 117.396 128.712 116.246 132.409C115.095 136.106 107.962 137.03 100.369 134.489C92.7766 131.947 88.1749 125.477 88.8651 123.166C89.7855 120.855 97.3784 118.544 104.741 121.086Z" fill="white"/>
<path d="M197.005 32.352C203.218 37.2046 206.439 43.6748 203.908 46.6788C201.607 49.6828 194.475 48.2964 188.262 43.4437C182.05 38.5911 179.979 30.7344 181.36 29.1169C182.97 27.0372 190.793 27.4993 197.005 32.352Z" fill="white"/>
<path d="M88.1742 94.7457C94.6166 99.3673 98.0679 105.606 95.7671 108.842C93.4662 112.077 86.5636 110.921 79.891 106.3C73.4486 101.678 70.9176 94.0525 72.2981 92.2039C73.9088 90.1242 81.7317 90.1242 88.1742 94.7457Z" fill="white"/>
</svg>
