<svg width="64" height="64" viewBox="0 0 64 64" fill="none" xmlns="http://www.w3.org/2000/svg">
<g opacity="0.06">
<rect width="64" height="64" rx="16" fill="#66B22E"/>
</g>
<path d="M38.1875 31.9376C39.2464 30.8796 40.016 29.5675 40.4227 28.127C40.8293 26.6864 40.8594 25.1656 40.51 23.7101L43.6287 22.3726C43.7239 22.3318 43.8276 22.3153 43.9307 22.3245C44.0337 22.3337 44.1329 22.3684 44.2193 22.4254C44.3056 22.4824 44.3765 22.5599 44.4255 22.6511C44.4745 22.7422 44.5001 22.8441 44.5 22.9476V40.7501L35.75 44.5001L28.25 40.7501L20.3713 44.1263C20.2761 44.1671 20.1724 44.1836 20.0693 44.1744C19.9663 44.1652 19.8671 44.1305 19.7807 44.0735C19.6944 44.0165 19.6235 43.939 19.5745 43.8478C19.5255 43.7567 19.4999 43.6548 19.5 43.5513V25.7501L23.4113 24.0738C23.1361 25.4808 23.2111 26.9339 23.6299 28.305C24.0486 29.6761 24.7982 30.9232 25.8125 31.9363L32 38.1251L38.1875 31.9376ZM36.42 30.1701L32 34.5876L27.58 30.1688C26.7061 29.2947 26.111 28.181 25.87 26.9687C25.6289 25.7564 25.7528 24.4998 26.2259 23.3578C26.699 22.2159 27.5001 21.2399 28.5279 20.5532C29.5556 19.8665 30.7639 19.5 32 19.5C33.2361 19.5 34.4444 19.8665 35.4721 20.5532C36.4999 21.2399 37.301 22.2159 37.7741 23.3578C38.2472 24.4998 38.3711 25.7564 38.13 26.9687C37.889 28.181 37.2939 29.2947 36.42 30.1688V30.1701Z" fill="#66B22E"/>
</svg>
