<svg width="31" height="31" viewBox="0 0 31 31" fill="none" xmlns="http://www.w3.org/2000/svg">
<g clip-path="url(#clip0_274_931)">
<path d="M15.5008 30.9997C24.0612 30.9997 31.0007 24.0602 31.0007 15.4999C31.0007 6.93953 24.0612 0 15.5008 0C6.9405 0 0.000976562 6.93953 0.000976562 15.4999C0.000976562 24.0602 6.9405 30.9997 15.5008 30.9997Z" fill="#179EDA"/>
<path d="M24.9939 11.1397C24.3297 11.4343 23.6152 11.6335 22.8659 11.7224C23.631 11.2641 24.2181 10.5388 24.4952 9.67312C23.7793 10.0978 22.9861 10.4059 22.1425 10.5719C21.4667 9.85216 20.5038 9.40234 19.4376 9.40234C17.3918 9.40234 15.7327 11.0615 15.7327 13.1072C15.7327 13.3976 15.7655 13.6803 15.8291 13.9516C12.75 13.7972 10.0199 12.3223 8.19243 10.0801C7.87358 10.6272 7.69067 11.2641 7.69067 11.9429C7.69067 13.228 8.34523 14.3625 9.3388 15.0267C8.73177 15.0076 8.16011 14.841 7.66083 14.5628C7.66056 14.5785 7.66056 14.5943 7.66056 14.6098C7.66056 16.4049 8.93817 17.9022 10.6327 18.2423C10.3222 18.3274 9.99418 18.3724 9.65682 18.3724C9.41755 18.3724 9.18573 18.3495 8.95972 18.3064C9.43109 19.778 10.799 20.8492 12.4206 20.8793C11.1524 21.8731 9.55514 22.4652 7.81888 22.4652C7.52047 22.4652 7.22483 22.4478 6.93555 22.4133C8.57428 23.4649 10.5222 24.078 12.6143 24.078C19.429 24.078 23.1557 18.4326 23.1557 13.5363C23.1557 13.3758 23.1521 13.2158 23.1449 13.0572C23.8694 12.535 24.4974 11.8827 24.9939 11.1397Z" fill="#F1F2F2"/>
</g>
<defs>
<clipPath id="clip0_274_931">
<rect width="31" height="31" fill="white"/>
</clipPath>
</defs>
</svg>
