<svg width="18" height="15" viewBox="0 0 18 15" fill="none" xmlns="http://www.w3.org/2000/svg">
<path d="M16.1367 3.79297C16.8398 3.26562 17.4727 2.63281 17.9648 1.89453C17.332 2.17578 16.5938 2.38672 15.8555 2.45703C16.6289 2 17.1914 1.29688 17.4727 0.417969C16.7695 0.839844 15.9609 1.15625 15.1523 1.33203C14.4492 0.59375 13.5 0.171875 12.4453 0.171875C10.4062 0.171875 8.75391 1.82422 8.75391 3.86328C8.75391 4.14453 8.78906 4.42578 8.85938 4.70703C5.80078 4.53125 3.05859 3.05469 1.23047 0.839844C0.914062 1.36719 0.738281 2 0.738281 2.70312C0.738281 3.96875 1.37109 5.09375 2.39062 5.76172C1.79297 5.72656 1.19531 5.58594 0.703125 5.30469V5.33984C0.703125 7.13281 1.96875 8.60938 3.65625 8.96094C3.375 9.03125 3.02344 9.10156 2.70703 9.10156C2.46094 9.10156 2.25 9.06641 2.00391 9.03125C2.46094 10.5078 3.83203 11.5625 5.44922 11.5977C4.18359 12.582 2.60156 13.1797 0.878906 13.1797C0.5625 13.1797 0.28125 13.1445 0 13.1094C1.61719 14.1641 3.55078 14.7617 5.66016 14.7617C12.4453 14.7617 16.1367 9.17188 16.1367 4.28516C16.1367 4.10938 16.1367 3.96875 16.1367 3.79297Z" fill="#5A7184"/>
</svg>
